<svg width="51.000000" height="42.000000" viewBox="0 0 51 42" fill="none" xmlns="http://www.w3.org/2000/svg" xmlns:xlink="http://www.w3.org/1999/xlink">
	<desc>
			Created with Pixso.
	</desc>
	<defs/>
	<path id="Vector" d="M2.7 17.55L2.7 20.82C2.7 20.95 2.64 21.06 2.52 21.12C2.4 21.18 2.27 21.16 2.17 21.09L1.55 20.62C1.43 20.53 1.27 20.53 1.15 20.62L0.53 21.09C0.43 21.16 0.3 21.18 0.18 21.12C0.06 21.06 0 20.95 0 20.82L0 17.55C0 17.43 0.06 17.32 0.16 17.26L0.56 17.03L0.56 11.96C0.56 11.81 0.66 11.68 0.81 11.64L11.29 8.85C11.34 8.84 11.4 8.84 11.46 8.85L21.94 11.64C22.09 11.68 22.19 11.81 22.19 11.96C22.19 12.11 22.09 12.24 21.94 12.28L11.46 15.07C11.4 15.08 11.34 15.08 11.29 15.07L2.35 12.69L2.35 17.15L2.54 17.26C2.64 17.32 2.7 17.43 2.7 17.55ZM47.44 0L8.36 0C6.41 0 4.81 1.59 4.81 3.55L4.81 8.72L7.78 7.94L7.78 3.46C7.78 3.19 8 2.96 8.27 2.96L47.53 2.96C47.8 2.96 48.02 3.19 48.02 3.46L48.02 25.54L7.78 25.54L7.78 22.05C6.79 21.87 5.8 21.68 4.81 21.49L4.81 27.97C4.81 29.92 6.41 31.52 8.36 31.52L20.64 31.52L20.64 37.16L15.24 37.16C13.57 37.16 12.21 38.25 12.21 39.58L12.21 42L43.59 42L43.59 39.58C43.59 38.25 42.22 37.16 40.56 37.16L35.16 37.16L35.16 31.52L47.44 31.52C49.39 31.52 50.99 29.92 50.99 27.97L50.99 3.54C50.99 1.59 49.39 0 47.44 0ZM42.22 16.83C43.04 16.54 44 16.42 44.97 16.4C45.17 16.4 45.33 16.23 45.33 16.03L45.33 12.09C45.33 11.99 45.29 11.89 45.21 11.82C45.13 11.75 45.03 11.71 44.92 11.73C43.65 11.86 43.01 12.6 42.22 13.17L42.22 16.83ZM42.22 24.2C43.04 23.9 44 23.78 44.97 23.76C45.17 23.76 45.33 23.59 45.33 23.39L45.33 19.46C45.33 19.35 45.29 19.25 45.21 19.18C45.13 19.11 45.03 19.08 44.92 19.09C43.65 19.22 43.01 19.96 42.22 20.53L42.22 24.2ZM45.33 8.67L45.33 4.73C45.33 4.62 45.29 4.53 45.21 4.46C45.13 4.38 45.03 4.35 44.92 4.36C43.65 4.5 43.01 5.24 42.22 5.81L42.22 9.47C43.04 9.18 44 9.06 44.97 9.04C45.17 9.03 45.33 8.87 45.33 8.67ZM37.13 23.39C37.13 23.59 37.29 23.76 37.49 23.76C38.46 23.78 39.42 23.9 40.24 24.2L40.24 20.53C39.45 19.96 38.81 19.22 37.53 19.09C37.43 19.08 37.33 19.11 37.25 19.18C37.17 19.25 37.13 19.35 37.13 19.46L37.13 23.39ZM26.38 11.49L31.48 8.55C31.91 8.3 32.06 7.76 31.81 7.33C31.57 6.91 31.02 6.76 30.6 7L25.5 9.95C25.07 10.2 24.92 10.74 25.17 11.16C25.41 11.59 25.96 11.74 26.38 11.49ZM19.15 19.44C19.32 19.41 19.43 19.27 19.43 19.11L19.43 14.8L11.92 16.79C11.56 16.89 11.19 16.89 10.83 16.79L3.31 14.8L3.31 19.11C3.31 19.27 3.43 19.41 3.59 19.44C12.78 21.13 9.96 21.13 19.15 19.44ZM25.94 14.97L31.83 14.97C32.32 14.97 32.72 14.57 32.72 14.07C32.72 13.58 32.32 13.18 31.83 13.18L25.94 13.18C25.44 13.18 25.04 13.58 25.04 14.07C25.04 14.57 25.44 14.97 25.94 14.97ZM31.48 19.6L26.38 16.65C25.96 16.41 25.41 16.55 25.17 16.98C24.92 17.41 25.07 17.95 25.5 18.19L30.6 21.14C31.02 21.39 31.57 21.24 31.81 20.81C32.06 20.39 31.91 19.84 31.48 19.6ZM40.24 9.47L40.24 5.81C39.45 5.24 38.81 4.5 37.53 4.36C37.43 4.35 37.33 4.38 37.25 4.46C37.17 4.53 37.13 4.62 37.13 4.73L37.13 8.67C37.13 8.87 37.29 9.03 37.49 9.04C38.46 9.06 39.42 9.18 40.24 9.47ZM37.13 16.03C37.13 16.23 37.29 16.4 37.49 16.4C38.46 16.42 39.42 16.54 40.24 16.83L40.24 13.17C39.45 12.6 38.81 11.86 37.53 11.73C37.43 11.71 37.33 11.75 37.25 11.82C37.17 11.89 37.13 11.99 37.13 12.09L37.13 16.03Z" fill="#FFFFFF" fill-opacity="1.000000" fill-rule="nonzero"/>
</svg>
