<svg width="42.000000" height="42.000000" viewBox="0 0 42 42" fill="none" xmlns="http://www.w3.org/2000/svg" xmlns:xlink="http://www.w3.org/1999/xlink">
	<desc>
			Created with Pixso.
	</desc>
	<defs>
		<clipPath id="clip1003_2471">
			<rect id="training 1" width="42.000000" height="42.000000" fill="white" fill-opacity="0"/>
		</clipPath>
	</defs>
	<rect id="training 1" width="42.000000" height="42.000000" fill="#FFFFFF" fill-opacity="0"/>
	<g clip-path="url(#clip1003_2471)">
		<path id="Vector" d="M22.62 32.44C21.94 32.17 20.05 32.24 19.37 32.44C17.61 32.85 14.63 34.34 14.63 37.52L14.56 41.39C14.56 41.52 14.63 41.66 14.7 41.79C14.76 41.93 14.97 41.93 15.1 41.93L26.35 41.93L26.75 42L26.82 42C26.96 42 27.09 41.93 27.16 41.86C27.29 41.72 27.36 41.59 27.36 41.45L27.36 37.52C27.36 34.27 24.45 32.78 22.62 32.44Z" fill="#FFFFFF" fill-opacity="1.000000" fill-rule="nonzero"/>
		<path id="Vector" d="M24.45 27.36C24.45 25.45 22.9 23.91 21 23.91C19.09 23.91 17.54 25.45 17.54 27.36C17.54 29.27 19.09 30.82 21 30.82C22.9 30.82 24.45 29.27 24.45 27.36Z" fill="#FFFFFF" fill-opacity="1.000000" fill-rule="nonzero"/>
		<path id="Vector" d="M37.25 32.44C36.58 32.17 34.68 32.24 34 32.44C32.24 32.85 29.26 34.34 29.26 37.52L29.19 41.39C29.19 41.52 29.26 41.66 29.33 41.79C29.39 41.93 29.6 41.93 29.73 41.93L40.98 41.93L41.39 42L41.45 42C41.59 42 41.72 41.93 41.79 41.86C41.93 41.72 42 41.59 42 41.45L42 37.52C42 34.27 39.01 32.78 37.25 32.44Z" fill="#FFFFFF" fill-opacity="1.000000" fill-rule="nonzero"/>
		<path id="Vector" d="M39.08 27.36C39.08 25.45 37.54 23.91 35.63 23.91C33.72 23.91 32.17 25.45 32.17 27.36C32.17 29.27 33.72 30.82 35.63 30.82C37.54 30.82 39.08 29.27 39.08 27.36Z" fill="#FFFFFF" fill-opacity="1.000000" fill-rule="nonzero"/>
		<path id="Vector" d="M8.06 32.44C7.38 32.17 5.48 32.24 4.8 32.44C3.04 32.85 0.06 34.34 0.06 37.52L0 41.39C0 41.52 0.06 41.66 0.13 41.79C0.2 41.93 0.4 41.93 0.54 41.93L11.78 41.93L12.19 42L12.26 42C12.39 42 12.53 41.93 12.6 41.86C12.73 41.72 12.8 41.59 12.8 41.45L12.8 37.52C12.8 34.27 9.82 32.78 8.06 32.44Z" fill="#FFFFFF" fill-opacity="1.000000" fill-rule="nonzero"/>
		<path id="Vector" d="M9.82 27.36C9.82 25.45 8.27 23.91 6.36 23.91C4.45 23.91 2.91 25.45 2.91 27.36C2.91 29.27 4.45 30.82 6.36 30.82C8.27 30.82 9.82 29.27 9.82 27.36Z" fill="#FFFFFF" fill-opacity="1.000000" fill-rule="nonzero"/>
		<path id="Vector" d="M2.91 19.84C3.18 19.91 3.52 19.84 3.72 19.64C3.92 19.5 4.06 19.23 4.06 18.96L4.06 14.29C4.06 14.09 4.2 13.95 4.4 13.95C4.6 13.95 4.74 14.09 4.74 14.29L4.74 21.54L11.58 21.54L11.58 14.76C11.58 14.56 11.71 14.42 11.92 14.42C12.12 14.42 12.26 14.56 12.26 14.76L12.26 15.64L16.59 18.01C16.93 18.15 17.27 18.08 17.61 17.95C17.95 17.81 18.22 17.47 18.35 17.13C18.35 17.07 18.42 17 18.42 16.93L18.42 16.86C18.42 16.73 18.42 16.59 18.42 16.46C18.42 16.32 18.35 16.25 18.29 16.12L18.29 16.05C18.22 15.91 18.15 15.85 18.08 15.78L18.01 15.71C17.88 15.64 17.81 15.51 17.68 15.51L14.36 13.75C14.29 13.75 14.29 13.68 14.22 13.68L14.29 13.54L12.66 10.97C12.19 10.22 11.38 9.68 10.56 9.61C10.5 9.61 10.43 9.61 10.36 9.61L6.09 9.61C5.62 9.61 5.08 9.68 4.67 9.89C4.26 10.02 3.92 10.36 3.65 10.7C2.7 12.12 2.16 13.75 2.16 15.51L2.16 18.9C2.16 19.37 2.5 19.78 2.91 19.84Z" fill="#FFFFFF" fill-opacity="1.000000" fill-rule="nonzero"/>
		<path id="Vector" d="M11.17 5.28C11.17 3.6 9.81 2.23 8.12 2.23C6.44 2.23 5.08 3.6 5.08 5.28C5.08 6.96 6.44 8.33 8.12 8.33C9.81 8.33 11.17 6.96 11.17 5.28Z" fill="#FFFFFF" fill-opacity="1.000000" fill-rule="nonzero"/>
		<path id="Vector" d="M17.74 14.49L22.01 8.19L22.89 8.8L18.62 15.1C18.76 15.24 18.83 15.3 18.89 15.44C19.1 15.71 19.23 16.05 19.3 16.39L38.74 16.39L38.74 0L14.83 0L14.83 12.66L15.03 13L17.74 14.49ZM35.22 2.43L36.3 2.43L36.3 14.49L35.22 14.49L35.22 2.43ZM31.43 7.85L32.51 7.85L32.51 14.56L31.43 14.56L31.43 7.85ZM28.65 9.95L29.73 9.95L29.73 14.49L28.65 14.49L28.65 9.95ZM25.8 7.38L26.89 7.38L26.89 14.49L25.8 14.49L25.8 7.38Z" fill="#FFFFFF" fill-opacity="1.000000" fill-rule="nonzero"/>
	</g>
</svg>
