<svg width="43.000000" height="42.000000" viewBox="0 0 43 42" fill="none" xmlns="http://www.w3.org/2000/svg" xmlns:xlink="http://www.w3.org/1999/xlink">
	<desc>
			Created with Pixso.
	</desc>
	<defs/>
	<path id="Vector" d="M25.5 30C25.5 32.48 23.48 34.5 21 34.5C18.51 34.5 16.5 32.48 16.5 30C16.5 27.51 18.51 25.5 21 25.5C23.48 25.5 25.5 27.51 25.5 30Z" fill="#FFFFFF" fill-opacity="1.000000" fill-rule="evenodd"/>
	<path id="Vector" d="M24 34.5L21 34.5L18 34.5C15.51 34.5 13.5 36.51 13.5 39L13.5 40.5C13.5 41.32 14.17 42 15 42L27 42C27.82 42 28.5 41.32 28.5 40.5L28.5 39C28.5 36.51 26.48 34.5 24 34.5Z" fill="#FFFFFF" fill-opacity="1.000000" fill-rule="nonzero"/>
	<path id="Vector" d="M39 27C39 29.48 36.98 31.5 34.5 31.5C32.01 31.5 30 29.48 30 27C30 24.51 32.01 22.5 34.5 22.5C36.98 22.5 39 24.51 39 27Z" fill="#FFFFFF" fill-opacity="1.000000" fill-rule="evenodd"/>
	<path id="Vector" d="M12 27C12 29.48 9.98 31.5 7.5 31.5C5.01 31.5 3 29.48 3 27C3 24.51 5.01 22.5 7.5 22.5C9.98 22.5 12 24.51 12 27Z" fill="#FFFFFF" fill-opacity="1.000000" fill-rule="evenodd"/>
	<path id="Vector" d="M32.99 1.5L32.99 18L28.24 18C25.9 18 23.71 18.9 22.06 20.56L20.99 21.62L19.93 20.56C18.28 18.9 16.09 18 13.75 18L8.99 18L8.99 1.5C8.17 1.5 7.49 2.17 7.49 3L7.49 18C7.49 18.82 8.17 19.5 8.99 19.5L13.49 19.5C15.89 19.5 18.35 20.48 19.93 22.06C20.23 22.35 20.61 22.5 20.99 22.5C21.38 22.5 21.76 22.35 22.06 22.06C23.64 20.48 26.1 19.5 28.49 19.5L32.99 19.5C33.82 19.5 34.49 18.82 34.49 18L34.49 3C34.49 2.17 33.82 1.5 32.99 1.5Z" fill="#FFFFFF" fill-opacity="1.000000" fill-rule="nonzero"/>
	<path id="Vector" d="M28.24 0C25.52 0 22.92 1.07 21 3C19.07 1.07 16.47 0 13.75 0L10.5 0L10.5 16.5L13.75 16.5C16.47 16.5 19.07 17.57 21 19.5C22.92 17.57 25.52 16.5 28.24 16.5L31.5 16.5L31.5 0L28.24 0ZM19.28 14.78C19.13 14.92 18.94 15 18.75 15C18.55 15 18.36 14.92 18.21 14.78C17.4 13.96 16.27 13.5 15.12 13.5L12.75 13.5C12.33 13.5 12 13.16 12 12.75C12 12.33 12.33 12 12.75 12L15.12 12C16.67 12 18.18 12.62 19.28 13.71C19.57 14.01 19.57 14.48 19.28 14.78ZM19.28 10.28C19.13 10.42 18.94 10.5 18.75 10.5C18.55 10.5 18.36 10.42 18.21 10.28C17.4 9.46 16.27 9 15.12 9L12.75 9C12.33 9 12 8.66 12 8.25C12 7.83 12.33 7.5 12.75 7.5L15.12 7.5C16.67 7.5 18.18 8.12 19.28 9.21C19.57 9.51 19.57 9.98 19.28 10.28ZM19.28 5.78C19.13 5.92 18.94 6 18.75 6C18.55 6 18.36 5.92 18.21 5.78C17.4 4.96 16.27 4.5 15.12 4.5L12.75 4.5C12.33 4.5 12 4.16 12 3.75C12 3.33 12.33 3 12.75 3L15.12 3C16.67 3 18.18 3.62 19.28 4.71C19.57 5.01 19.57 5.48 19.28 5.78ZM29.25 13.5L26.87 13.5C25.72 13.5 24.59 13.96 23.78 14.78C23.63 14.92 23.44 15 23.25 15C23.05 15 22.86 14.92 22.71 14.78C22.42 14.48 22.42 14.01 22.71 13.71C23.81 12.62 25.32 12 26.87 12L29.25 12C29.66 12 30 12.33 30 12.75C30 13.16 29.66 13.5 29.25 13.5ZM29.25 9L26.87 9C25.72 9 24.59 9.46 23.78 10.28C23.63 10.42 23.44 10.5 23.25 10.5C23.05 10.5 22.86 10.42 22.71 10.28C22.42 9.98 22.42 9.51 22.71 9.21C23.81 8.12 25.32 7.5 26.87 7.5L29.25 7.5C29.66 7.5 30 7.83 30 8.25C30 8.66 29.66 9 29.25 9ZM29.25 4.5L26.87 4.5C25.72 4.5 24.59 4.96 23.78 5.78C23.63 5.92 23.44 6 23.25 6C23.05 6 22.86 5.92 22.71 5.78C22.42 5.48 22.42 5.01 22.71 4.71C23.81 3.62 25.32 3 26.87 3L29.25 3C29.66 3 30 3.33 30 3.75C30 4.16 29.66 4.5 29.25 4.5Z" fill="#FFFFFF" fill-opacity="1.000000" fill-rule="nonzero"/>
	<path id="Vector" d="M14.56 34.09C13.84 32.56 12.29 31.5 10.5 31.5L7.5 31.5L4.5 31.5C2.01 31.5 0 33.51 0 36L0 37.5C0 38.32 0.67 39 1.5 39L12 39C12 36.97 13.01 35.18 14.56 34.09Z" fill="#FFFFFF" fill-opacity="1.000000" fill-rule="nonzero"/>
	<path id="Vector" d="M37.5 31.5L34.5 31.5L31.5 31.5C29.7 31.5 28.15 32.56 27.43 34.09C28.98 35.18 30 36.97 30 39L40.5 39C41.32 39 42 38.32 42 37.5L42 36C42 33.51 39.98 31.5 37.5 31.5Z" fill="#FFFFFF" fill-opacity="1.000000" fill-rule="nonzero"/>
</svg>
