<svg width="43.000000" height="42.000000" viewBox="0 0 43 42" fill="none" xmlns="http://www.w3.org/2000/svg" xmlns:xlink="http://www.w3.org/1999/xlink">
	<desc>
			Created with Pixso.
	</desc>
	<defs/>
	<path id="Vector" d="M2.45 22.99L5.18 22.99L5.64 18.34L4.71 18.34L5.38 15.88L5.05 15.81L4.45 18.34L4.31 18.34L4.31 15.55L3.98 15.55L3.98 18.34L3.58 18.34L3.58 16.01L3.25 16.01L3.25 18.34L2.59 15.81L2.32 15.88L2.92 18.34L1.99 18.34L2.45 22.99Z" fill="#FFFFFF" fill-opacity="1.000000" fill-rule="nonzero"/>
	<path id="Vector" d="M30.03 18.07L40 18.07L40 16.48L29.97 16.41C30.1 16.68 30.23 16.94 30.23 17.34C30.3 17.61 30.17 17.81 30.03 18.07Z" fill="#FFFFFF" fill-opacity="1.000000" fill-rule="nonzero"/>
	<path id="Vector" d="M39.34 19.6C39.34 19.27 39.47 18.93 39.6 18.67L29.57 18.67L29.57 20.26L39.54 20.33C39.47 20.13 39.34 19.87 39.34 19.6Z" fill="#FFFFFF" fill-opacity="1.000000" fill-rule="nonzero"/>
	<path id="Vector" d="M40 22.66L40 21.06L29.97 21C30.1 21.26 30.23 21.53 30.23 21.93C30.23 22.19 30.17 22.46 30.03 22.66L40 22.66Z" fill="#FFFFFF" fill-opacity="1.000000" fill-rule="nonzero"/>
	<path id="Vector" d="M17.94 8.63C20.26 8.63 22.26 6.71 22.26 4.31C22.26 1.92 20.33 0 17.94 0C15.55 0 13.62 1.92 13.62 4.31C13.62 6.77 15.61 8.63 17.94 8.63Z" fill="#FFFFFF" fill-opacity="1.000000" fill-rule="nonzero"/>
	<path id="Vector" d="M41.6 24.18L27.44 24.18C27.71 23.99 27.71 23.52 27.24 23.19C28.11 23.12 28.7 22.19 28.31 21.33C23.45 10.36 23.72 10.76 23.45 10.5C23.32 10.03 20.86 8.97 20.13 8.77C20 8.83 19.8 8.9 19.67 8.97C19.13 9.17 18.54 9.3 18 9.3C17.14 9.3 16.28 9.03 15.68 8.7C14.68 9.03 13.55 9.43 12.62 10.03C12.62 10.03 12.62 10.03 12.56 10.03C12.42 10.1 12.09 10.3 12.02 10.43C11.96 10.56 12.09 10.23 7.97 18.67L7.31 20C7.11 20.4 7.11 20.8 7.31 21.19C7.5 21.59 7.84 21.79 8.3 21.86C8.37 21.86 12.09 22.46 12.02 22.46C12.36 22.52 12.82 22.39 13.15 22.12C13.22 22.06 13.22 21.99 13.42 21.73C13.68 21.33 13.49 20.46 13.15 20.2C13.02 20.06 12.69 19.87 12.49 19.87C12.42 19.87 10.56 19.6 10.5 19.53L10.83 18.87L12.29 15.88L12.49 19.13C12.56 19.13 12.69 19.13 12.75 19.2L12.56 17.94C12.56 17.74 12.56 17.54 12.69 17.41C12.75 17.34 12.89 17.21 13.02 17.21L13.09 17.21C13.42 17.14 13.75 17.41 13.82 17.81C13.82 17.87 14.48 22.39 14.42 22.12C17.01 22.19 18.07 23.45 18.34 23.32C20.73 21.53 25.51 22.06 27.11 23.65C27.18 23.72 27.18 23.72 27.18 23.85L27.18 23.92C27.18 23.99 27.04 24.12 26.91 24.12C9.23 24.05 7.44 24.52 10.36 23.06C10.3 23.06 9.76 22.99 9.83 22.99C9.43 23.25 9.17 23.39 9.17 23.39C8.83 23.59 8.83 24.05 9.1 24.32L0.79 24.32C0.33 24.32 0 24.65 0 25.12C0 25.58 0.33 25.91 0.79 25.91L1.99 25.91L1.99 37.61L4.31 37.61L4.31 42L7.24 42L7.24 37.61L35.15 37.61L35.15 42L38.07 42L38.07 37.61L40.4 37.61L40.4 25.78L41.6 25.78C42.06 25.78 42.39 25.45 42.39 24.98C42.39 24.58 42 24.18 41.6 24.18ZM19.07 10.03L18.54 11.56L16.94 11.56L16.41 10.03C16.41 9.5 19.07 9.5 19.07 10.03ZM19.07 17.74L17.74 19.2L16.41 17.74L16.87 12.29L18.6 12.29L19.07 17.74ZM22.92 20.6L23.19 16.28L25.05 20.53L22.92 20.53L22.92 20.6Z" fill="#FFFFFF" fill-opacity="1.000000" fill-rule="nonzero"/>
	<path id="Vector" d="M13.15 17.54C13.09 17.54 13.09 17.54 13.02 17.61C12.89 17.67 12.82 17.81 12.89 17.94L13.09 19.47C13.22 19.53 13.55 19.67 13.82 20.13L13.49 17.87C13.49 17.61 13.35 17.47 13.15 17.54Z" fill="#FFFFFF" fill-opacity="1.000000" fill-rule="nonzero"/>
	<path id="Vector" d="M13.62 23.19C13.62 23.39 13.82 23.45 13.95 23.45L14.02 23.45C14.15 23.45 14.28 23.32 14.28 23.19C14.28 23.19 14.28 23.12 14.28 23.06L14.22 22.86C14.22 22.79 14.08 21.86 14.08 21.93C14.02 22.12 13.75 22.59 13.55 22.72C13.55 22.79 13.62 23.25 13.62 23.19Z" fill="#FFFFFF" fill-opacity="1.000000" fill-rule="nonzero"/>
</svg>
