<svg width="48.000000" height="42.000000" viewBox="0 0 48 42" fill="none" xmlns="http://www.w3.org/2000/svg" xmlns:xlink="http://www.w3.org/1999/xlink">
	<desc>
			Created with Pixso.
	</desc>
	<defs/>
	<path id="Vector" d="M5.55 23.07L14.85 23.07L14.85 32.46L5.66 32.46C5.6 32.46 5.55 32.41 5.55 32.35L5.55 23.07Z" fill="#FFFFFF" fill-opacity="1.000000" fill-rule="nonzero"/>
	<path id="Vector" d="M21.05 15.17L21.06 34.13C24.45 34.31 27.89 35.33 31.3 37.16L31.3 18.51C27.89 16.49 24.44 15.37 21.05 15.17ZM30.19 32.87C29.71 33.64 28.89 33.32 28.71 33.21C26.83 32.05 24.93 31.45 23.08 31.45C22.49 31.45 22.01 30.98 22.01 30.38C22.01 29.79 22.49 29.31 23.08 29.31C25.34 29.31 27.61 30.02 29.83 31.39C30.34 31.7 30.5 32.36 30.19 32.87ZM30.19 29.02C29.71 29.8 28.89 29.48 28.71 29.37C26.83 28.2 24.93 27.61 23.08 27.61C22.49 27.61 22.01 27.13 22.01 26.54C22.01 25.94 22.49 25.47 23.08 25.47C25.34 25.47 27.61 26.17 29.83 27.54C30.34 27.85 30.5 28.51 30.19 29.02ZM30.19 25.18C29.7 25.95 28.89 25.63 28.71 25.52C26.83 24.35 24.93 23.76 23.08 23.76C22.49 23.76 22.01 23.29 22.01 22.69C22.01 22.1 22.49 21.62 23.08 21.62C25.34 21.62 27.61 22.32 29.83 23.7C30.34 24.01 30.5 24.67 30.19 25.18ZM30.19 21.33C29.7 22.11 28.89 21.78 28.71 21.68C26.83 20.51 24.93 19.91 23.08 19.91C22.49 19.91 22.01 19.44 22.01 18.85C22.01 18.25 22.49 17.78 23.08 17.78C25.34 17.78 27.61 18.48 29.83 19.85C30.34 20.16 30.5 20.82 30.19 21.33Z" fill="#FFFFFF" fill-opacity="1.000000" fill-rule="nonzero"/>
	<path id="Vector" d="M33.45 18.51L33.45 37.16C36.85 35.33 40.29 34.31 43.68 34.13L43.68 15.29C43.68 15.23 43.63 15.18 43.56 15.18C40.22 15.39 36.82 16.51 33.45 18.51ZM41.66 31.45C39.81 31.45 37.91 32.05 36.03 33.21C35.86 33.32 35.02 33.61 34.55 32.87C34.24 32.36 34.4 31.7 34.9 31.39C37.12 30 39.4 29.31 41.65 29.31C42.24 29.31 42.72 29.79 42.72 30.38C42.73 30.98 42.25 31.45 41.66 31.45ZM41.66 27.61C39.81 27.61 37.91 28.2 36.03 29.37C35.86 29.47 35.02 29.77 34.55 29.02C34.24 28.51 34.4 27.85 34.9 27.54C37.12 26.16 39.4 25.47 41.65 25.47C42.24 25.47 42.72 25.94 42.72 26.54C42.73 27.13 42.25 27.61 41.66 27.61ZM41.66 23.76C39.81 23.76 37.91 24.35 36.03 25.52C35.86 25.63 35.02 25.92 34.55 25.18C34.24 24.67 34.4 24.01 34.9 23.7C37.12 22.31 39.4 21.62 41.65 21.62C42.24 21.62 42.72 22.1 42.72 22.69C42.73 23.29 42.25 23.76 41.66 23.76ZM41.66 19.91C39.81 19.91 37.91 20.51 36.03 21.68C35.86 21.78 35.02 22.08 34.55 21.33C34.24 20.82 34.4 20.16 34.9 19.85C37.12 18.47 39.4 17.78 41.65 17.78C42.24 17.78 42.72 18.25 42.72 18.85C42.72 19.44 42.25 19.91 41.66 19.91Z" fill="#FFFFFF" fill-opacity="1.000000" fill-rule="nonzero"/>
	<path id="Vector" d="M47.74 17.29L47.74 37.74C47.74 37.78 47.71 37.83 47.67 37.85L32.4 42C32.38 42 32.36 42 32.35 42L17.08 37.84C17.04 37.83 17.01 37.78 17.01 37.73L17.01 17.15L18.92 17.67L18.92 34.13C18.92 35.27 19.82 36.2 20.95 36.27C24.35 36.45 27.83 37.58 31.29 39.61C31.96 40 32.79 40 33.46 39.61C36.92 37.58 40.4 36.45 43.8 36.27C44.94 36.2 45.83 35.27 45.83 34.13L45.83 17.67L47.61 17.18C47.68 17.17 47.74 17.21 47.74 17.29Z" fill="#FFFFFF" fill-opacity="1.000000" fill-rule="nonzero"/>
	<path id="Vector" d="M33.8 0.1L33.8 9.29C33.8 9.34 33.75 9.39 33.69 9.39L5.66 9.39C5.6 9.39 5.55 9.35 5.55 9.29L5.55 0.1C5.55 0.05 5.59 0 5.66 0L33.69 0C33.75 0 33.8 0.04 33.8 0.1Z" fill="#FFFFFF" fill-opacity="1.000000" fill-rule="nonzero"/>
	<path id="Vector" d="M2.67 11.53L1.06 11.53C0.47 11.53 0 12.01 0 12.6C0 13.2 0.47 13.67 1.06 13.67L2.67 13.67L2.67 18.77L1.06 18.77C0.47 18.77 0 19.25 0 19.84C0 20.43 0.47 20.91 1.06 20.91L2.67 20.91L14.86 20.91L14.86 17.14C14.86 16.09 15.89 14.61 17.57 15.06L18.92 15.43L18.92 15.16C18.92 14.58 19.17 14.01 19.59 13.6C20.01 13.2 20.6 12.98 21.18 13.01C23.59 13.15 26.02 13.7 28.43 14.68L28.43 11.51L2.67 11.51L2.67 11.53Z" fill="#FFFFFF" fill-opacity="1.000000" fill-rule="nonzero"/>
</svg>
