<svg width="42.000000" height="42.000000" viewBox="0 0 42 42" fill="none" xmlns="http://www.w3.org/2000/svg" xmlns:xlink="http://www.w3.org/1999/xlink">
	<desc>
			Created with Pixso.
	</desc>
	<defs>
		<clipPath id="clip697_1225">
			<rect id="focus-group 1" width="42.000000" height="42.000000" fill="white" fill-opacity="0"/>
		</clipPath>
	</defs>
	<rect id="focus-group 1" width="42.000000" height="42.000000" fill="#FFFFFF" fill-opacity="0"/>
	<g clip-path="url(#clip697_1225)">
		<path id="Vector" d="M27.0093 29.917L14.9912 29.917C12.665 29.917 10.791 31.7908 10.791 34.0525L10.791 40.5139C10.791 40.9016 11.1143 41.1602 11.437 41.1602L30.4985 41.1602C30.8862 41.1602 31.145 40.9016 31.145 40.5139L31.145 34.0525C31.145 31.7908 29.271 29.917 27.0093 29.917Z" fill="#FFFFFF" fill-opacity="1.000000" fill-rule="nonzero"/>
		<path id="Vector" d="M13.0527 25.4585C13.0527 27.6353 11.2876 29.3999 9.11084 29.3999C6.93408 29.3999 5.16943 27.6353 5.16943 25.4585C5.16943 23.2815 6.93408 21.5168 9.11084 21.5168C11.2876 21.5168 13.0527 23.2815 13.0527 25.4585Z" fill="#FFFFFF" fill-opacity="1.000000" fill-rule="evenodd"/>
		<path id="Vector" d="M16.4771 23.197C16.4771 25.6523 18.48 27.72 21 27.72C23.4556 27.72 25.5234 25.7168 25.5234 23.197C25.5234 20.677 23.52 18.6738 21 18.6738C18.5449 18.6738 16.4771 20.7415 16.4771 23.197Z" fill="#FFFFFF" fill-opacity="1.000000" fill-rule="nonzero"/>
		<path id="Vector" d="M36.8311 25.4585C36.8311 27.6353 35.0659 29.3999 32.8892 29.3999C30.7124 29.3999 28.9478 27.6353 28.9478 25.4585C28.9478 23.2815 30.7124 21.5168 32.8892 21.5168C35.0659 21.5168 36.8311 23.2815 36.8311 25.4585Z" fill="#FFFFFF" fill-opacity="1.000000" fill-rule="evenodd"/>
		<path id="Vector" d="M10.2739 31.3384L4.78174 31.3384C2.32617 31.3384 0.323242 33.3416 0.323242 35.7969L0.323242 40.5784C0.323242 40.9661 0.646484 41.2246 0.969238 41.2246L9.62793 41.2246C9.56348 41.0308 9.49854 40.8369 9.49854 40.5784L9.49854 34.1169C9.56348 33.083 9.82178 32.1138 10.2739 31.3384Z" fill="#FFFFFF" fill-opacity="1.000000" fill-rule="nonzero"/>
		<path id="Vector" d="M37.2183 31.3384L31.7261 31.3384C32.1782 32.1138 32.437 33.083 32.437 34.0522L32.437 40.5137C32.437 40.7722 32.3721 40.9661 32.3076 41.1599L41.0308 41.1599C41.4185 41.1599 41.6768 40.9014 41.6768 40.5137L41.6768 35.7322C41.6768 33.3416 39.6738 31.3384 37.2183 31.3384Z" fill="#FFFFFF" fill-opacity="1.000000" fill-rule="nonzero"/>
		<path id="Vector" d="M2.77881 17.4463L7.04346 17.4463L9.62793 19.3848C9.95117 19.6431 10.4678 19.5139 10.5972 19.0615L11.1143 17.4463L13.6987 17.4463C14.0215 17.4463 14.3447 17.1877 14.3447 16.8L14.3447 15.0554L12.3418 15.0554C10.9204 15.0554 9.75732 13.8923 9.75732 12.4709L9.75732 7.75391L2.77881 7.75391C2.06787 7.75391 1.48633 8.33545 1.48633 9.04614L1.48633 16.1538C1.48633 16.8647 2.06787 17.4463 2.77881 17.4463ZM4.52344 11.8247L8.0127 11.8247C8.40039 11.8247 8.65869 12.0833 8.65869 12.4709C8.65869 12.8586 8.40039 13.1169 8.0127 13.1169L4.52344 13.1169C4.13574 13.1169 3.87695 12.8586 3.87695 12.4709C3.87695 12.1477 4.2002 11.8247 4.52344 11.8247Z" fill="#FFFFFF" fill-opacity="1.000000" fill-rule="nonzero"/>
		<path id="Vector" d="M27.5908 15.0554L27.5908 16.8C27.5908 17.1877 27.8491 17.4463 28.2368 17.4463L30.7568 17.4463L31.2739 19.0615C31.4033 19.4492 31.9199 19.6431 32.3076 19.3848L34.8926 17.4463L39.1567 17.4463C39.8677 17.4463 40.4492 16.8647 40.4492 16.1538L40.4492 9.04614C40.4492 8.33545 39.8677 7.75391 39.1567 7.75391L32.1787 7.75391L32.1787 12.4709C32.1787 13.8923 31.0156 15.0554 29.5938 15.0554L27.5908 15.0554ZM34.2461 11.8247L37.7354 11.8247C38.123 11.8247 38.3813 12.0833 38.3813 12.4709C38.3813 12.8584 38.123 13.1169 37.7354 13.1169L34.2461 13.1169C33.8584 13.1169 33.6001 12.8584 33.6001 12.4709C33.6001 12.1477 33.8584 11.8247 34.2461 11.8247Z" fill="#FFFFFF" fill-opacity="1.000000" fill-rule="nonzero"/>
		<path id="Vector" d="M12.4062 13.7632L17.9629 13.7632L20.5479 16.3479C20.8062 16.6062 21.1938 16.6062 21.4521 16.3479L24.0366 13.7632L29.5938 13.7632C30.3047 13.7632 30.8862 13.1816 30.8862 12.4709L30.8862 2.77856C30.8862 1.68018 29.9814 0.840088 28.9478 0.840088L13.0522 0.840088C11.9536 0.840088 11.1138 1.68018 11.1138 2.77856L11.1138 12.4709C11.1138 13.1816 11.6953 13.7632 12.4062 13.7632ZM16.0894 5.04004L26.4277 5.04004C26.8154 5.04004 27.0737 5.29858 27.0737 5.68628C27.0737 6.07397 26.8154 6.33228 26.4277 6.33228L16.0894 6.33228C15.7017 6.33228 15.4429 6.07397 15.4429 5.68628C15.4429 5.29858 15.7661 5.04004 16.0894 5.04004ZM16.0894 8.27075L26.4277 8.27075C26.8154 8.27075 27.0737 8.5293 27.0737 8.91699C27.0737 9.30469 26.8154 9.56323 26.4277 9.56323L16.0894 9.56323C15.7017 9.56323 15.4429 9.30469 15.4429 8.91699C15.4429 8.5293 15.7661 8.27075 16.0894 8.27075Z" fill="#FFFFFF" fill-opacity="1.000000" fill-rule="nonzero"/>
	</g>
</svg>
