<svg width="42.000000" height="42.000000" viewBox="0 0 42 42" fill="none" xmlns="http://www.w3.org/2000/svg" xmlns:xlink="http://www.w3.org/1999/xlink">
	<desc>
			Created with Pixso.
	</desc>
	<defs>
		<clipPath id="clip697_1267">
			<rect id="focus-group (1) 1" width="42.000000" height="42.000000" fill="white" fill-opacity="0"/>
		</clipPath>
	</defs>
	<rect id="focus-group (1) 1" width="42.000000" height="42.000000" fill="#FFFFFF" fill-opacity="0"/>
	<g clip-path="url(#clip697_1267)">
		<path id="Vector" d="M3.19775 23.446C3.19775 21.1001 5.1001 19.1978 7.44629 19.1978C9.79199 19.1978 11.6943 21.1001 11.6943 23.446C11.6943 25.7947 9.79199 27.697 7.44629 27.697C5.1001 27.697 3.19775 25.7947 3.19775 23.446ZM12.3638 30.8657C11.4175 30.208 10.269 29.8191 9.03662 29.8191L5.85791 29.8191C2.6377 29.8191 0.000976562 32.4556 0.000976562 35.6763L0.000976562 40.0132C0.000976562 40.8481 0.684082 41.5315 1.51953 41.5315L11.769 41.5315C11.4385 41.041 11.2456 40.4529 11.2456 39.8179L11.2456 34.9231C11.2456 33.4448 11.6528 32.0569 12.3638 30.8657ZM36.1445 29.8198L32.9658 29.8198C31.7339 29.8198 30.5845 30.208 29.6387 30.8667C30.3486 32.0569 30.7568 33.4458 30.7568 34.9238L30.7568 39.8188C30.7568 40.4536 30.564 41.0417 30.231 41.5325L40.4834 41.5325C41.3184 41.5325 41.9995 40.8491 41.9995 40.0139L41.9995 35.677C42 32.4565 39.3652 29.8198 36.1445 29.8198ZM34.5566 19.1978C32.208 19.1978 30.3057 21.1001 30.3057 23.446C30.3057 25.7947 32.208 27.697 34.5566 27.697C36.9028 27.697 38.8052 25.7947 38.8052 23.446C38.8052 21.1001 36.9028 19.1978 34.5566 19.1978ZM22.7949 28.3154L19.207 28.3154C15.5723 28.3154 12.5986 31.2891 12.5986 34.9238L12.5986 39.8188C12.5986 40.7629 13.3706 41.5325 14.312 41.5325L27.6899 41.5325C28.6313 41.5325 29.4009 40.7629 29.4009 39.8188L29.4009 34.9238C29.4019 31.2891 26.4297 28.3154 22.7949 28.3154ZM21 16.3284C18.354 16.3284 16.2056 18.4766 16.2056 21.123C16.2056 23.7717 18.354 25.9177 21 25.9177C23.6489 25.9177 25.7949 23.7717 25.7949 21.123C25.7949 18.4766 23.6489 16.3284 21 16.3284ZM25.4019 1.479C25.5068 0.904785 26.0112 0.467529 26.6138 0.467529L37.5752 0.467529C38.252 0.467529 38.8057 1.02124 38.8057 1.698L38.8057 8.85034C38.8057 9.52954 38.252 10.0825 37.5752 10.0825L35.6592 10.0825C35.3638 10.0825 35.1221 10.3245 35.1221 10.6196L35.1221 12.5007C35.1221 12.719 34.999 12.905 34.7988 12.9937C34.5962 13.0823 34.3755 13.0447 34.2153 12.8936L31.3408 10.2268C31.2383 10.1292 31.1177 10.0825 30.9761 10.0825L28.0205 10.0825C28.3135 9.28003 28.4717 8.41724 28.4717 7.51562C28.4717 5.03418 27.2622 2.8374 25.4019 1.479ZM31.4175 6.93164C31.4175 7.30566 31.7202 7.61084 32.0942 7.61084L36.042 7.61084C36.4146 7.61084 36.7188 7.3064 36.7188 6.93164C36.7188 6.55908 36.4146 6.25488 36.042 6.25488L32.0942 6.25488C31.7202 6.25562 31.4175 6.56006 31.4175 6.93164ZM3.19775 8.85034L3.19775 1.698C3.19775 1.02124 3.75146 0.467529 4.42822 0.467529L15.3892 0.467529C15.9888 0.467529 16.4932 0.904785 16.5981 1.479C15.7402 2.10645 15.019 2.91113 14.4941 3.84155C14.5195 3.77173 14.5337 3.69458 14.5337 3.61597C14.5337 3.24194 14.2295 2.93921 13.8545 2.93921L5.96045 2.93921C5.58643 2.93921 5.28369 3.24097 5.28369 3.61597C5.28369 3.99072 5.58545 4.29517 5.96045 4.29517L13.8555 4.29517C14.0732 4.29517 14.2671 4.19263 14.3901 4.03271C13.8413 5.07202 13.5298 6.25806 13.5298 7.51562C13.5298 8.41797 13.6904 9.28101 13.9834 10.0825L11.0278 10.0825C10.8857 10.0825 10.7651 10.1292 10.6602 10.2268L7.78564 12.8936C7.625 13.0447 7.4043 13.0823 7.2041 12.9937C7.00391 12.905 6.88086 12.7197 6.88086 12.5007L6.88086 10.6196C6.88086 10.3245 6.63916 10.0825 6.34131 10.0825L4.42725 10.0825C3.75146 10.0825 3.19775 9.52954 3.19775 8.85034ZM5.28369 6.93164C5.28369 7.30566 5.58545 7.61084 5.96045 7.61084L9.90869 7.61084C10.2827 7.61084 10.5854 7.3064 10.5854 6.93164C10.5854 6.55908 10.2827 6.25488 9.90869 6.25488L5.96045 6.25488C5.58545 6.25562 5.28369 6.56006 5.28369 6.93164ZM14.8848 7.51562C14.8848 4.14673 17.6338 1.40015 21 1.40015C24.3691 1.40015 27.1182 4.14673 27.1182 7.51562C27.1182 10.8848 24.3691 13.6311 21 13.6311C17.6328 13.6311 14.8848 10.8848 14.8848 7.51562ZM17.7075 7.54346L19.8838 9.71973C20.1484 9.98486 20.5767 9.98486 20.8418 9.71973L24.2944 6.2688C24.5571 6.00391 24.5571 5.57324 24.2944 5.31055C24.0298 5.04565 23.5991 5.04565 23.3364 5.31055L20.3618 8.28271L18.6646 6.58789C18.3999 6.323 17.9717 6.323 17.7065 6.58789C17.4424 6.85034 17.4424 7.28101 17.7075 7.54346Z" fill="#FFFFFF" fill-opacity="1.000000" fill-rule="nonzero"/>
	</g>
</svg>
