<svg width="39.286133" height="42.000000" viewBox="0 0 39.2861 42" fill="none" xmlns="http://www.w3.org/2000/svg" xmlns:xlink="http://www.w3.org/1999/xlink">
	<desc>
			Created with Pixso.
	</desc>
	<defs/>
	<path id="Vector" d="M31.9297 27.2878C27.8672 27.2878 24.5737 30.5813 24.5737 34.644C24.5737 38.7065 27.8672 42 31.9297 42C35.9927 42 39.2861 38.7065 39.2861 34.644C39.2856 30.5813 35.9927 27.2878 31.9297 27.2878ZM36.0859 33.2151C34.6353 34.679 33.1948 36.1526 31.7378 37.6096C31.3115 38.0356 30.6206 38.0356 30.1948 37.6096L27.7769 35.1921C27.3511 34.7661 27.3511 34.0752 27.7769 33.6492C28.2031 33.2231 28.894 33.2231 29.3203 33.6492L30.9639 35.293L34.5405 31.6804C34.9639 31.2527 35.6548 31.2515 36.0811 31.6755C36.5073 32.0994 36.5088 32.7881 36.0859 33.2151ZM26.0234 0.0703125L26.0234 4.62573C26.0234 4.84912 26.2056 5.03149 26.4292 5.03149L30.9844 5.03149C30.9453 4.94531 30.8892 4.86597 30.8174 4.79395L26.2612 0.237793C26.189 0.165527 26.1094 0.109619 26.0234 0.0703125ZM26.4292 6.4314C25.4331 6.4314 24.6235 5.62183 24.6235 4.62573L24.6235 0L0.811523 0C0.364746 0 0 0.364502 0 0.811523L0 39.4385C0 39.8855 0.364746 40.25 0.811523 40.25L25.2041 40.25C24.1489 38.9851 23.4438 37.4182 23.2373 35.6978L6.3374 35.6978C5.95068 35.6978 5.63721 35.3843 5.63721 34.9978C5.63721 34.6111 5.95068 34.2979 6.3374 34.2979L23.1812 34.2979C23.2378 32.8391 23.6509 31.4717 24.3364 30.281L6.3374 30.281C5.95068 30.281 5.63721 29.9675 5.63721 29.5811C5.63721 29.1946 5.95068 28.8811 6.3374 28.8811L24.7173 28.8811C24.8975 28.8811 25.061 28.949 25.1851 29.0603C26.6162 27.3333 28.6982 26.1653 31.0547 25.9314L31.0547 6.4314L26.4292 6.4314ZM7.47314 4.15552C7.54053 3.90015 7.74072 3.71509 7.98047 3.65527L15.3496 1.69775C15.4741 1.66504 15.5996 1.66797 15.7153 1.70044L23.084 3.65796C23.457 3.7561 23.6797 4.13794 23.582 4.51099C23.5786 4.52319 23.5752 4.53564 23.5713 4.54761L23.5713 8.69336L24.0991 8.93848L24.0991 11.9492L22.8711 11.2068L21.6431 11.9492L21.6431 8.93848L22.1709 8.69336L22.1709 5.25122L15.7051 6.96875C15.5806 7.00146 15.4551 6.99829 15.3398 6.96606L7.9707 5.00854C7.59766 4.9104 7.375 4.52856 7.47314 4.15552ZM13.9175 16.6062C14.4424 16.5254 14.98 16.4824 15.5273 16.4824C16.0752 16.4824 16.6123 16.5251 17.1372 16.6062L15.5273 17.853L13.9175 16.6062ZM14.5244 18.8418L13.6489 19.8796L12.0708 17.0671C12.1084 17.054 12.1455 17.041 12.1831 17.0283L14.5244 18.8418ZM18.8716 17.0283C18.9092 17.041 18.9468 17.054 18.9839 17.0671L17.4058 19.8796L16.5303 18.8418L18.8716 17.0283ZM15.5273 15.6077C12.7314 15.6077 10.4424 13.4407 10.2461 10.6948C11.2974 10.8909 12.3452 11.1023 13.397 11.2932C15.062 11.5957 15.9932 11.5957 17.6577 11.2932C18.7095 11.1023 19.7578 10.8909 20.8091 10.6948C20.6128 13.4407 18.3232 15.6077 15.5273 15.6077ZM10.1826 9.25952L10.1826 7.04468L14.9736 8.31738C15.3306 8.41504 15.707 8.41675 16.0649 8.32178L20.8721 7.04468L20.8721 9.25952C14.4927 10.426 16.5625 10.426 10.1826 9.25952ZM25.6689 25.5757C25.5312 25.7417 25.3457 25.8291 25.1299 25.8291L5.9248 25.8291C5.70898 25.8291 5.52344 25.7419 5.38574 25.5757C5.24805 25.4097 5.19678 25.2109 5.23682 24.999C5.84717 21.771 7.93848 19.0669 10.7778 17.6196L12.9229 21.4426C13.1704 21.8838 13.7852 21.9202 14.0869 21.5273L15.5273 19.8193L16.9888 21.552C17.3052 21.926 17.8965 21.8623 18.1313 21.4426L20.2769 17.6196C23.1162 19.0669 25.2075 21.771 25.8179 24.9988C25.8579 25.2107 25.8066 25.4094 25.6689 25.5757Z" fill="#FFFFFF" fill-opacity="1.000000" fill-rule="evenodd"/>
</svg>
