<svg width="42.051270" height="42.000244" viewBox="0 0 42.0513 42.0002" fill="none" xmlns="http://www.w3.org/2000/svg" xmlns:xlink="http://www.w3.org/1999/xlink">
	<desc>
			Created with Pixso.
	</desc>
	<defs/>
	<path id="Vector" d="M36.0435 19.4729L34.7295 14.2014L34.354 14.2014L33.04 19.4729L36.0435 19.4729Z" fill="#FFFFFF" fill-opacity="1.000000" fill-rule="nonzero"/>
	<path id="Vector" d="M2.25293 37.4949C1.65527 37.4949 1.08252 37.7322 0.659668 38.1548C0.237305 38.5771 0 39.1501 0 39.7476C0 40.345 0.237305 40.918 0.659668 41.3406C1.08252 41.7629 1.65527 42.0002 2.25293 42.0002L42.0513 42.0002L42.0513 37.4949L2.25293 37.4949ZM39.0474 40.4985L3.00342 40.4985L3.00342 38.9966L39.0474 38.9966L39.0474 40.4985Z" fill="#FFFFFF" fill-opacity="1.000000" fill-rule="nonzero"/>
	<path id="Vector" d="M21.0254 29.6748L25.2197 25.4802L16.8306 25.4802L21.0254 29.6748Z" fill="#FFFFFF" fill-opacity="1.000000" fill-rule="nonzero"/>
	<path id="Vector" d="M35.2925 33.74C35.2891 31.6023 34.4575 29.5493 32.9727 28.012C31.4873 26.4746 29.4644 25.5723 27.3281 25.4949L22.8379 29.9854L32.2886 29.9854L32.2886 31.4871L9.76123 31.4871L9.76123 29.9854L19.2124 29.9854L14.7222 25.4949C12.5859 25.5723 10.563 26.4746 9.07764 28.012C7.59277 29.5493 6.76123 31.6023 6.75781 33.74L6.75781 35.9927L35.2925 35.9927L35.2925 33.74Z" fill="#FFFFFF" fill-opacity="1.000000" fill-rule="nonzero"/>
	<path id="Vector" d="M30.7876 10.0002L30.7876 5.35059L21.2891 8.91284C21.1196 8.97559 20.9331 8.97559 20.7637 8.91284L11.2637 5.35059L11.2637 10.0002C11.5996 10.1775 11.9443 10.3374 12.2969 10.4792C15.0869 11.5208 18.0483 12.0244 21.0254 11.9639C24.001 12.0244 26.9609 11.5215 29.7495 10.4814C30.1035 10.3386 30.4497 10.178 30.7876 10.0002Z" fill="#FFFFFF" fill-opacity="1.000000" fill-rule="nonzero"/>
	<path id="Vector" d="M29.2856 15.718L29.2856 12.2549C26.6133 13.0913 23.8257 13.4998 21.0259 13.4653C18.2256 13.4998 15.438 13.0908 12.7656 12.2542L12.7656 15.718C12.7656 17.9087 13.6357 20.0098 15.1851 21.5588C16.7339 23.1079 18.835 23.978 21.0259 23.978C23.2163 23.978 25.3174 23.1079 26.8662 21.5588C28.4155 20.0098 29.2856 17.9087 29.2856 15.718Z" fill="#FFFFFF" fill-opacity="1.000000" fill-rule="nonzero"/>
	<path id="Vector" d="M28.8989 4.45435L21.0254 4.45435L21.0254 2.95264L28.8989 2.95264L21.0254 0L11.1494 3.70361L21.0254 7.40698L28.8989 4.45435Z" fill="#FFFFFF" fill-opacity="1.000000" fill-rule="nonzero"/>
	<path id="Vector" d="M35.2925 11.9636C35.2925 12.3782 34.9561 12.7144 34.5415 12.7144C34.127 12.7144 33.7905 12.3782 33.7905 11.9636C33.7905 11.5488 34.127 11.2126 34.5415 11.2126C34.9561 11.2126 35.2925 11.5488 35.2925 11.9636Z" fill="#FFFFFF" fill-opacity="1.000000" fill-rule="evenodd"/>
	<path id="Vector" d="M33.791 9.84619C34.2759 9.66602 34.8086 9.66602 35.293 9.84619L35.293 3.70386C35.293 3.50464 35.2139 3.31372 35.0732 3.17285C34.9321 3.03198 34.7412 2.95288 34.542 2.95288L30.7876 2.95288L30.7876 4.45459L33.791 4.45459L33.791 9.84619Z" fill="#FFFFFF" fill-opacity="1.000000" fill-rule="nonzero"/>
</svg>
