<svg width="42.000000" height="42.000000" viewBox="0 0 42 42" fill="none" xmlns="http://www.w3.org/2000/svg" xmlns:xlink="http://www.w3.org/1999/xlink">
	<desc>
			Created with Pixso.
	</desc>
	<defs>
		<clipPath id="clip693_962">
			<rect id="thesis 1" width="42.000000" height="42.000000" fill="white" fill-opacity="0"/>
		</clipPath>
	</defs>
	<rect id="thesis 1" width="42.000000" height="42.000000" fill="#FFFFFF" fill-opacity="0"/>
	<g clip-path="url(#clip693_962)">
		<path id="Vector" d="M26.4556 17.2183L26.4556 23.3755L29.0488 20.7822L29.0488 16.7903C28.8257 16.8318 28.6021 16.8728 28.3789 16.9133C27.7407 17.0293 27.1001 17.1396 26.4556 17.2183ZM30.5728 21.1145L31.7271 19.96C32.272 19.4153 33.1602 19.4153 33.7051 19.96L34.1006 20.3555C34.645 20.9001 34.645 21.7886 34.1006 22.3333L32.9463 23.4875L30.5728 21.1145ZM22.1445 29.543L29.645 22.0422L32.0181 24.4155L24.5176 31.916L22.1445 29.543ZM23.3218 32.5764L21.4844 30.7388L20.8481 33.1116C20.832 33.1729 20.8877 33.2285 20.9487 33.2122L23.3218 32.5764ZM24.8877 1.00928L39.1479 4.79736C39.4976 4.8894 39.7065 5.24731 39.6143 5.59717C39.5513 5.83667 39.3638 6.01001 39.1392 6.06592L38.7744 6.16284L38.7744 13.176L39.7583 13.7444L39.7583 18.7473L38.1182 17.5139L36.4775 18.7473L36.4775 13.7444L37.4614 13.1763L37.4614 6.51172L24.8779 9.85425C24.7612 9.88477 24.6436 9.88208 24.5352 9.85181L10.2749 6.06372C9.92529 5.97168 9.71631 5.61353 9.80859 5.26392C9.87158 5.02441 10.0596 4.85107 10.2837 4.79492L24.5449 1.00684C24.6616 0.976074 24.7793 0.979004 24.8877 1.00928ZM34.4688 8.66455L25.2148 11.1226C24.8799 11.2117 24.5269 11.2102 24.1924 11.1184L14.9541 8.66455L14.9541 14.4241C26.6011 16.554 22.8223 16.554 34.4688 14.4241L34.4688 8.66455ZM5.95166 7.47803C5.88818 7.50708 5.82959 7.5481 5.77637 7.60132L2.4165 10.9614C2.36328 11.0146 2.32227 11.073 2.29297 11.1367L5.65234 11.1367C5.81738 11.1367 5.95166 11.0022 5.95166 10.8374L5.95166 7.47803ZM6.57324 29.4551L20.4692 29.4551L20.5039 29.3276L25.1436 24.6877L25.1436 17.3259C24.9995 17.3311 24.8555 17.3337 24.7114 17.3337C23.4775 17.3337 22.2549 17.1333 21.0444 16.9133C18.9336 16.53 16.8296 16.1013 14.7178 15.7151L13.6416 15.5183L13.6416 15.0803L6.57324 15.0803C6.21045 15.0803 5.91699 14.7866 5.91699 14.4241C5.91699 14.0618 6.21045 13.7678 6.57324 13.7678L13.6416 13.7678L13.6416 11.9429L10.7568 11.9429C10.3945 11.9429 10.1006 11.6492 10.1006 11.2866C10.1006 10.9243 10.3945 10.6304 10.7568 10.6304L13.6416 10.6304L13.6416 8.31567L10.2925 7.42603L7.26416 7.42603L7.26416 10.8374C7.26416 11.7266 6.54199 12.449 5.65283 12.449L2.24121 12.449L2.24121 36.5107C2.24121 36.8403 2.51025 37.1094 2.83984 37.1094L24.5449 37.1094C24.8745 37.1094 25.1436 36.8403 25.1436 36.5107L25.1436 33.1465L24.7329 33.5569L21.2886 34.4797C20.7144 34.6335 20.0942 34.3987 19.7671 33.905L6.57324 33.905C6.21045 33.905 5.91699 33.6111 5.91699 33.2488C5.91699 32.8865 6.21045 32.5925 6.57324 32.5925L19.6289 32.5925L20.1177 30.7676L6.57324 30.7676C6.21045 30.7676 5.91699 30.4736 5.91699 30.1113C5.91699 29.749 6.21045 29.4551 6.57324 29.4551ZM6.57324 16.9053L20.8115 16.9053C21.1738 16.9053 21.4678 17.1992 21.4678 17.5615C21.4678 17.9241 21.1738 18.2178 20.8115 18.2178L6.57324 18.2178C6.21045 18.2178 5.91699 17.9241 5.91699 17.5615C5.91699 17.1992 6.21045 16.9053 6.57324 16.9053ZM6.57324 20.0427L20.8115 20.0427C21.1738 20.0427 21.4678 20.3367 21.4678 20.699C21.4678 21.0615 21.1738 21.3552 20.8115 21.3552L6.57324 21.3552C6.21045 21.3552 5.91699 21.0615 5.91699 20.699C5.91699 20.3367 6.21045 20.0427 6.57324 20.0427ZM6.57324 23.1802L20.8115 23.1802C21.1738 23.1802 21.4678 23.4741 21.4678 23.8364C21.4678 24.199 21.1738 24.4927 20.8115 24.4927L6.57324 24.4927C6.21045 24.4927 5.91699 24.199 5.91699 23.8364C5.91699 23.4741 6.21045 23.1802 6.57324 23.1802ZM6.57324 26.3176L20.8115 26.3176C21.1738 26.3176 21.4678 26.6116 21.4678 26.9739C21.4678 27.3364 21.1738 27.6301 20.8115 27.6301L6.57324 27.6301C6.21045 27.6301 5.91699 27.3364 5.91699 26.9739C5.91699 26.6116 6.21045 26.3176 6.57324 26.3176ZM26.4556 31.834L26.4556 36.511C26.4556 37.5649 25.5986 38.4219 24.5449 38.4219L6.14697 38.4219L6.14697 40.4165C6.14697 40.7461 6.41553 41.0151 6.74512 41.0151L28.4507 41.0151C28.7803 41.0151 29.0488 40.7461 29.0488 40.4165L29.0488 29.2407L26.4556 31.834Z" fill="#FFFFFF" fill-opacity="1.000000" fill-rule="evenodd"/>
	</g>
</svg>
