<svg width="36.000000" height="36.000000" viewBox="0 0 36 36" fill="none" xmlns="http://www.w3.org/2000/svg" xmlns:xlink="http://www.w3.org/1999/xlink">
	<desc>
			Created with Pixso.
	</desc>
	<defs>
		<clipPath id="clip956_2786">
			<rect id="secure-access 1" width="36.000000" height="36.000000" fill="white" fill-opacity="0"/>
		</clipPath>
	</defs>
	<rect id="secure-access 1" width="36.000000" height="36.000000" fill="#FFFFFF" fill-opacity="0"/>
	<g clip-path="url(#clip956_2786)">
		<path id="Vector" d="M15.38 25.82C15.45 27.47 15.9 29.03 16.64 30.39C15.76 30.74 14.84 31 13.88 31.16L13.42 31.24L12.96 31.16C6.01 29.95 0.88 23.85 0.88 16.8L0.88 6.65L13.42 1.28L25.96 6.65L25.96 14.98C25.91 14.98 25.86 14.98 25.81 14.98C23.92 14.98 22.16 15.48 20.63 16.35L20.63 14.91C20.63 14.4 20.21 13.98 19.69 13.98L7.15 13.98C6.63 13.98 6.21 14.4 6.21 14.91L6.21 24.89C6.21 25.4 6.63 25.82 7.15 25.82L15.38 25.82ZM16.2 12.67L18.54 12.67L18.54 11.12C18.54 8.3 16.24 6 13.42 6C10.6 6 8.3 8.3 8.3 11.12L8.3 12.67L10.64 12.67L10.64 11.12C10.64 9.59 11.9 8.34 13.42 8.34C14.94 8.34 16.2 9.59 16.2 11.12L16.2 12.67ZM13.42 16.34C14.43 16.34 15.24 17.16 15.24 18.17C15.24 18.82 14.9 19.4 14.38 19.72L14.38 22.5C14.38 23.03 13.95 23.46 13.42 23.46C12.89 23.46 12.46 23.03 12.46 22.5L12.46 19.72C11.94 19.4 11.6 18.82 11.6 18.17C11.6 17.16 12.41 16.34 13.42 16.34ZM25.81 16.11C30.94 16.11 35.11 20.27 35.11 25.41C35.11 30.54 30.94 34.71 25.81 34.71C20.67 34.71 16.51 30.54 16.51 25.41C16.51 20.27 20.67 16.11 25.81 16.11ZM25.81 24.73C27.29 24.73 28.49 23.52 28.49 22.04C28.49 20.56 27.29 19.36 25.81 19.36C24.33 19.36 23.13 20.56 23.13 22.04C23.13 23.52 24.33 24.73 25.81 24.73ZM20.53 30.17L31.09 30.17C30.8 27.51 28.55 25.43 25.81 25.43C23.07 25.43 20.82 27.51 20.53 30.17Z" fill="#FFFFFF" fill-opacity="1.000000" fill-rule="evenodd"/>
	</g>
</svg>
