<svg width="36.000000" height="36.000000" viewBox="0 0 36 36" fill="none" xmlns="http://www.w3.org/2000/svg" xmlns:xlink="http://www.w3.org/1999/xlink">
	<desc>
			Created with Pixso.
	</desc>
	<defs>
		<clipPath id="clip955_2740">
			<rect id="education 1" width="36.000000" height="36.000000" fill="white" fill-opacity="0"/>
		</clipPath>
	</defs>
	<rect id="education 1" width="36.000000" height="36.000000" fill="#FFFFFF" fill-opacity="0"/>
	<g clip-path="url(#clip955_2740)">
		<path id="Vector" d="M27.79 12.35C27.84 13.74 29.84 13.74 29.89 12.35L29.89 8L27.79 8.77L27.79 12.35Z" fill="#FFFFFF" fill-opacity="1.000000" fill-rule="nonzero"/>
		<path id="Vector" d="M6.79 6.01L17.63 9.97C17.86 10.06 18.12 10.06 18.35 9.97L29.2 6.01C30.12 5.67 30.12 4.36 29.2 4.02L18.36 0.06C18.12 -0.03 17.87 -0.03 17.63 0.06L6.79 4.02C5.87 4.36 5.87 5.67 6.79 6.01Z" fill="#FFFFFF" fill-opacity="1.000000" fill-rule="nonzero"/>
		<path id="Vector" d="M10.73 23C10.73 21.03 9.12 19.43 7.15 19.43C2.41 19.61 2.41 26.4 7.15 26.58C9.12 26.58 10.73 24.98 10.73 23Z" fill="#FFFFFF" fill-opacity="1.000000" fill-rule="nonzero"/>
		<path id="Vector" d="M32.42 23C32.42 21.03 30.81 19.43 28.84 19.43C24.1 19.61 24.1 26.4 28.84 26.58C30.81 26.58 32.42 24.98 32.42 23Z" fill="#FFFFFF" fill-opacity="1.000000" fill-rule="nonzero"/>
		<path id="Vector" d="M14.42 23C14.42 24.98 16.02 26.58 18 26.58C22.73 26.4 22.73 19.6 17.99 19.43C16.02 19.43 14.42 21.03 14.42 23Z" fill="#FFFFFF" fill-opacity="1.000000" fill-rule="nonzero"/>
		<path id="Vector" d="M28.84 26.58C27.43 26.58 26.11 26.99 25 27.7C26.4 29.32 27.25 31.43 27.25 33.74L27.25 36L34.94 36C35.52 36 36 35.52 36 34.94L36 33.74C36 29.79 32.79 26.58 28.84 26.58Z" fill="#FFFFFF" fill-opacity="1.000000" fill-rule="nonzero"/>
		<path id="Vector" d="M17.94 26.58C13.96 26.58 10.73 29.79 10.73 33.74L10.73 36L25.14 36L25.14 33.74C25.14 29.79 21.91 26.58 17.94 26.58Z" fill="#FFFFFF" fill-opacity="1.000000" fill-rule="nonzero"/>
		<path id="Vector" d="M7.15 26.58C3.2 26.58 0 29.79 0 33.74L0 34.94C0 35.52 0.47 36 1.05 36L8.62 36L8.62 33.74C8.62 31.41 9.48 29.28 10.91 27.65C9.82 26.97 8.53 26.58 7.15 26.58Z" fill="#FFFFFF" fill-opacity="1.000000" fill-rule="nonzero"/>
		<path id="Vector" d="M24.7 13.67L24.7 9.9L19.08 11.95C18.38 12.21 17.6 12.21 16.9 11.95L11.29 9.9L11.29 13.67C11.29 14.11 11.57 14.51 11.98 14.66L17.63 16.73C17.86 16.81 18.12 16.81 18.35 16.73L24.01 14.66C24.42 14.51 24.7 14.11 24.7 13.67Z" fill="#FFFFFF" fill-opacity="1.000000" fill-rule="nonzero"/>
	</g>
</svg>
