<svg width="42.001953" height="41.999512" viewBox="0 0 42.002 41.9995" fill="none" xmlns="http://www.w3.org/2000/svg" xmlns:xlink="http://www.w3.org/1999/xlink">
	<desc>
			Created with Pixso.
	</desc>
	<defs/>
	<path id="Vector" d="M40.7695 39.5386L39.457 39.5386L39.457 15.2573C39.457 14.9309 39.3271 14.6179 39.0967 14.3872C38.8657 14.1565 38.5527 14.0269 38.2266 14.0269L33.3047 14.0269C32.9785 14.0269 32.6655 14.1565 32.4346 14.3872C32.2041 14.6179 32.0742 14.9309 32.0742 15.2573L32.0742 39.5386L29.6133 39.5386L29.6133 23.4604C29.6133 23.134 29.4834 22.821 29.2529 22.5903C29.022 22.3596 28.709 22.23 28.3828 22.23L23.4609 22.23C23.1348 22.23 22.8218 22.3596 22.5908 22.5903C22.3604 22.821 22.2305 23.134 22.2305 23.4604L22.2305 39.5386L19.7695 39.5386L19.7695 27.9722C19.7695 27.6458 19.6396 27.3328 19.4092 27.1021C19.1782 26.8713 18.8652 26.7417 18.5391 26.7417L13.6172 26.7417C13.291 26.7417 12.978 26.8713 12.7471 27.1021C12.5166 27.3328 12.3867 27.6458 12.3867 27.9722L12.3867 39.5386L9.92578 39.5386L9.92578 30.9253C9.92578 30.5989 9.79639 30.2859 9.56543 30.0552C9.33447 29.8245 9.02148 29.6948 8.69531 29.6948L3.77344 29.6948C3.44727 29.6948 3.13428 29.8245 2.90332 30.0552C2.67236 30.2859 2.54297 30.5989 2.54297 30.9253L2.54297 39.5386L1.23047 39.5386C0.904297 39.5386 0.591309 39.6682 0.360352 39.8989C0.129395 40.1296 0 40.4426 0 40.769C0 41.0955 0.129395 41.4084 0.360352 41.6392C0.591309 41.8699 0.904297 41.9995 1.23047 41.9995L40.7695 41.9995C41.0957 41.9995 41.4087 41.8699 41.6396 41.6392C41.8701 41.4084 42 41.0955 42 40.769C42 40.4426 41.8701 40.1296 41.6396 39.8989C41.4087 39.6682 41.0957 39.5386 40.7695 39.5386Z" fill="#FFFFFF" fill-opacity="1.000000" fill-rule="nonzero"/>
	<path id="Vector" d="M1.23047 26.439C8.91016 26.439 17.2383 23.6804 24.6797 18.6724C30.5093 14.7505 35.3677 9.73999 38.3857 4.60889L39.5811 9.06885C39.7275 9.61841 40.439 10.0935 41.0879 9.93848C41.2446 9.89795 41.3921 9.82666 41.521 9.72876C41.6499 9.63062 41.7583 9.50781 41.8389 9.36768C41.9199 9.22729 41.9722 9.07227 41.9927 8.91138C42.0127 8.75073 42.001 8.58765 41.9575 8.43164L39.9429 0.911621C39.8579 0.59668 39.6519 0.328125 39.3691 0.165039C39.0864 0.00195312 38.751 -0.0422363 38.4355 0.0422363L30.916 2.05688C30.6006 2.14136 30.3315 2.34766 30.168 2.63037C30.0049 2.91309 29.9604 3.24927 30.0449 3.5647C30.1294 3.88013 30.3354 4.14917 30.6182 4.3125C30.9009 4.47583 31.2368 4.52026 31.5527 4.43579L36.3975 3.1355C33.5811 8.02881 28.9282 12.8481 23.3057 16.6306C16.2661 21.3687 8.42529 23.978 1.23047 23.978C0.904297 23.978 0.591309 24.1077 0.360352 24.3384C0.129395 24.5693 0 24.8823 0 25.2085C0 25.5349 0.129395 25.8479 0.360352 26.0786C0.591309 26.3093 0.904297 26.439 1.23047 26.439Z" fill="#FFFFFF" fill-opacity="1.000000" fill-rule="nonzero"/>
	<path id="Vector" d="M14.5869 13.1172L13.6353 17.5371C13.5703 17.8389 13.4043 18.1091 13.1641 18.3032C12.9243 18.4973 12.625 18.6033 12.3164 18.6035L8.74561 18.6035C7.29346 18.6035 6.66846 18.0605 5.83984 17.2542L4.82764 17.2542L4.82764 11.8564L5.5249 11.8564C7.12354 10.7688 7.97998 9.20435 8.4541 7.63843C8.49072 7.51001 8.56494 7.39575 8.66748 7.3103C8.77002 7.2251 8.89551 7.17261 9.02832 7.16016C9.32324 7.13525 9.62012 7.18164 9.89307 7.29565C10.1665 7.40991 10.4082 7.58813 10.5977 7.81543C10.7871 8.04272 10.9189 8.3125 10.9824 8.60156C11.0454 8.89087 11.0381 9.19092 10.9604 9.47681C10.7339 10.3135 10.5215 11.0623 10.0991 11.8557L13.5679 11.8557C13.7236 11.8557 13.877 11.8906 14.0176 11.9575C14.1577 12.0247 14.2812 12.1223 14.3789 12.2434C14.4766 12.3645 14.5459 12.5059 14.582 12.6572C14.6182 12.8086 14.6196 12.9661 14.5869 13.1182L14.5869 13.1172Z" fill="#FFFFFF" fill-opacity="1.000000" fill-rule="nonzero"/>
	<path id="Vector" d="M9.39502 0.112793L10.209 1.76147C10.2236 1.79102 10.2446 1.81641 10.271 1.83569C10.2979 1.85498 10.3281 1.86743 10.3608 1.87231L12.1812 2.13647C12.2183 2.14209 12.2534 2.15796 12.2822 2.18237C12.311 2.20679 12.332 2.23877 12.3438 2.27466C12.3555 2.31055 12.3569 2.34888 12.3477 2.3855C12.3384 2.42212 12.3193 2.45557 12.2925 2.48193L10.98 3.76562C10.9561 3.78833 10.9385 3.81689 10.9282 3.84814C10.9185 3.87939 10.916 3.91284 10.9219 3.94531L11.2329 5.75732C11.2388 5.79443 11.2349 5.83276 11.2207 5.86768C11.2061 5.90259 11.1826 5.93286 11.1519 5.95508C11.1216 5.97705 11.0854 5.99048 11.0479 5.99316C11.0103 5.99585 10.9727 5.98804 10.939 5.9707L9.30762 5.11499C9.27832 5.09961 9.24609 5.09155 9.21289 5.09155C9.18018 5.09155 9.14795 5.09961 9.11865 5.11499L7.49121 5.9707C7.45801 5.98804 7.41992 5.99585 7.38232 5.99316C7.34473 5.99048 7.30859 5.97705 7.27832 5.95508C7.24756 5.93286 7.22412 5.90259 7.20996 5.86768C7.19531 5.83276 7.19141 5.79443 7.19775 5.75732L7.5083 3.94531C7.51416 3.91284 7.51172 3.87964 7.50146 3.84814C7.49121 3.81689 7.47363 3.78857 7.4502 3.76562L6.1377 2.48193C6.11084 2.45557 6.0918 2.42212 6.08252 2.3855C6.07373 2.34888 6.07471 2.31055 6.08643 2.27466C6.09814 2.23877 6.11963 2.20679 6.14844 2.18237C6.17676 2.15796 6.21191 2.14209 6.24951 2.13647L8.06934 1.87231C8.10205 1.86719 8.13281 1.85474 8.15918 1.83545C8.18555 1.81616 8.20752 1.79077 8.22217 1.76147L9.03516 0.112793C9.05176 0.0788574 9.07812 0.050293 9.10986 0.0305176C9.14209 0.010498 9.1792 0 9.21729 0C9.25488 0 9.29199 0.010498 9.32422 0.0305176C9.35645 0.050293 9.38232 0.0788574 9.39941 0.112793L9.39502 0.112793Z" fill="#FFFFFF" fill-opacity="1.000000" fill-rule="nonzero"/>
	<path id="Vector" d="M15.4668 1.72607L16.2808 3.375C16.2949 3.40454 16.3164 3.42993 16.3433 3.44922C16.3696 3.46851 16.4009 3.4812 16.4331 3.48584L18.2524 3.75C18.29 3.75537 18.3252 3.77148 18.3535 3.79565C18.3823 3.82007 18.4038 3.85205 18.4155 3.88794C18.4272 3.92383 18.4282 3.9624 18.4194 3.99902C18.4102 4.03564 18.3911 4.06885 18.3643 4.09521L17.0518 5.37915C17.0278 5.40161 17.0103 5.42993 17 5.46118C16.9897 5.49243 16.9878 5.52563 16.9937 5.55786L17.3042 7.37085C17.311 7.40796 17.3066 7.44629 17.2925 7.4812C17.2783 7.51611 17.2544 7.54639 17.2236 7.5686C17.1934 7.59082 17.1572 7.60376 17.1191 7.60645C17.0815 7.60889 17.0439 7.60107 17.0107 7.58325L15.3799 6.72607C15.3511 6.71069 15.3184 6.70264 15.2856 6.70264C15.2529 6.70264 15.2202 6.71069 15.1914 6.72607L13.564 7.58325C13.5303 7.60107 13.4927 7.60889 13.4551 7.60645C13.4175 7.60376 13.3813 7.59082 13.3506 7.5686C13.3198 7.54639 13.2964 7.51611 13.2822 7.4812C13.2676 7.44629 13.2637 7.40796 13.27 7.37085L13.5811 5.55786C13.5864 5.52563 13.584 5.49243 13.5737 5.46118C13.564 5.43018 13.5464 5.40186 13.5229 5.37915L12.2104 4.09521C12.1831 4.06885 12.1636 4.0354 12.1543 3.99878C12.1455 3.96216 12.1465 3.92358 12.1582 3.88745C12.1699 3.85132 12.1914 3.81934 12.2202 3.79492C12.249 3.77051 12.2842 3.75464 12.3218 3.74902L14.1421 3.48486C14.1743 3.48022 14.2051 3.46753 14.2314 3.44824C14.2578 3.42896 14.2793 3.40356 14.2939 3.37427L15.1035 1.72217C15.1201 1.68823 15.146 1.65967 15.1782 1.63965C15.2104 1.61963 15.2476 1.60913 15.2852 1.60913C15.3228 1.60913 15.3599 1.61963 15.3921 1.63965C15.4243 1.65967 15.4502 1.68823 15.4668 1.72217L15.4668 1.72607Z" fill="#FFFFFF" fill-opacity="1.000000" fill-rule="nonzero"/>
	<path id="Vector" d="M3.32324 1.72632L4.13623 3.375C4.15088 3.4043 4.17236 3.42969 4.19873 3.44897C4.22559 3.46826 4.25635 3.48096 4.28857 3.48584L6.10889 3.75C6.146 3.75562 6.18115 3.77148 6.20996 3.7959C6.23877 3.82031 6.26025 3.85205 6.27148 3.88794C6.2832 3.92383 6.28467 3.9624 6.27539 3.99902C6.2666 4.03564 6.24756 4.06885 6.22021 4.09521L4.90771 5.37915C4.88428 5.40186 4.86719 5.43018 4.85693 5.46143C4.84717 5.49243 4.84473 5.52563 4.85059 5.55786L5.16162 7.37085C5.16797 7.40796 5.16357 7.44629 5.14941 7.4812C5.13525 7.51611 5.11133 7.54639 5.08105 7.5686C5.05029 7.59082 5.01416 7.60376 4.97656 7.60645C4.93896 7.60913 4.90088 7.60107 4.86768 7.58325L3.23535 6.72607C3.20654 6.71069 3.17432 6.70264 3.1416 6.70264C3.10889 6.70264 3.07617 6.71069 3.04736 6.72607L1.41895 7.58325C1.38574 7.60083 1.34814 7.60864 1.31055 7.60596C1.27344 7.60327 1.2373 7.59009 1.20654 7.56812C1.17627 7.5459 1.15283 7.51562 1.13818 7.48096C1.12402 7.44604 1.12012 7.40796 1.12646 7.37085L1.43701 5.55786C1.44287 5.52563 1.44043 5.49243 1.43018 5.46118C1.41992 5.43018 1.40234 5.40186 1.37891 5.37915L0.0615234 4.09521C0.034668 4.06885 0.015625 4.03564 0.00634766 3.99902C-0.00244141 3.9624 -0.00146484 3.92383 0.0102539 3.88794C0.0219727 3.85205 0.043457 3.82031 0.0722656 3.7959C0.100586 3.77148 0.135742 3.75562 0.17334 3.75L1.99316 3.48584C2.02588 3.48096 2.05664 3.46826 2.08301 3.44897C2.10986 3.42993 2.13135 3.40454 2.146 3.375L2.95947 1.72632C2.97656 1.69238 3.00244 1.66382 3.03467 1.6438C3.06641 1.62378 3.10352 1.61328 3.1416 1.61328C3.1792 1.61328 3.21631 1.62378 3.24854 1.6438C3.28027 1.66382 3.30615 1.69238 3.32324 1.72632Z" fill="#FFFFFF" fill-opacity="1.000000" fill-rule="nonzero"/>
	<path id="Vector" d="M1.4541 11.1812L3.479 11.1812C3.56836 11.1812 3.65381 11.2166 3.71729 11.2798C3.78027 11.343 3.81592 11.429 3.81592 11.5183L3.81592 17.5886C3.81592 17.6328 3.80713 17.6768 3.79053 17.7175C3.77344 17.7585 3.74854 17.7957 3.71729 17.8269C3.68604 17.8584 3.64893 17.8831 3.60791 17.9001C3.56689 17.917 3.52295 17.9258 3.479 17.9258L1.4541 17.9258C1.41016 17.9258 1.36621 17.917 1.3252 17.9001C1.28418 17.8831 1.24707 17.8584 1.21582 17.8269C1.18457 17.7957 1.15967 17.7585 1.14307 17.7175C1.12598 17.6768 1.11719 17.6328 1.11719 17.5886L1.11719 11.5183C1.11719 11.429 1.15283 11.343 1.21582 11.2798C1.2793 11.2166 1.36475 11.1812 1.4541 11.1812Z" fill="#FFFFFF" fill-opacity="1.000000" fill-rule="nonzero"/>
</svg>
