<svg width="42.001953" height="42.000000" viewBox="0 0 42.002 42" fill="none" xmlns="http://www.w3.org/2000/svg" xmlns:xlink="http://www.w3.org/1999/xlink">
	<desc>
			Created with Pixso.
	</desc>
	<defs/>
	<path id="Vector" d="M40.7695 39.5391L39.457 39.5391L39.457 15.2578C39.457 14.9314 39.3271 14.6184 39.0967 14.3877C38.8657 14.157 38.5527 14.0273 38.2266 14.0273L33.3047 14.0273C32.9785 14.0273 32.6655 14.157 32.4346 14.3877C32.2041 14.6184 32.0742 14.9314 32.0742 15.2578L32.0742 39.5391L29.6133 39.5391L29.6133 23.4609C29.6133 23.1345 29.4834 22.8215 29.2529 22.5908C29.022 22.3601 28.709 22.2305 28.3828 22.2305L23.4609 22.2305C23.1348 22.2305 22.8218 22.3601 22.5908 22.5908C22.3604 22.8215 22.2305 23.1345 22.2305 23.4609L22.2305 39.5391L19.7695 39.5391L19.7695 27.9727C19.7695 27.6462 19.6396 27.3333 19.4092 27.1025C19.1782 26.8718 18.8652 26.7422 18.5391 26.7422L13.6172 26.7422C13.291 26.7422 12.978 26.8718 12.7471 27.1025C12.5166 27.3333 12.3867 27.6462 12.3867 27.9727L12.3867 39.5391L9.92578 39.5391L9.92578 30.9258C9.92578 30.5994 9.79639 30.2864 9.56543 30.0557C9.33447 29.825 9.02148 29.6953 8.69531 29.6953L3.77344 29.6953C3.44727 29.6953 3.13428 29.825 2.90332 30.0557C2.67236 30.2864 2.54297 30.5994 2.54297 30.9258L2.54297 39.5391L1.23047 39.5391C0.904297 39.5391 0.591309 39.6687 0.360352 39.8994C0.129395 40.1301 0 40.4431 0 40.7695C0 41.0959 0.129395 41.4089 0.360352 41.6396C0.591309 41.8704 0.904297 42 1.23047 42L40.7695 42C41.0957 42 41.4087 41.8704 41.6396 41.6396C41.8701 41.4089 42 41.0959 42 40.7695C42 40.4431 41.8701 40.1301 41.6396 39.8994C41.4087 39.6687 41.0957 39.5391 40.7695 39.5391Z" fill="#FFFFFF" fill-opacity="1.000000" fill-rule="nonzero"/>
	<path id="Vector" d="M1.23047 26.4395C8.91016 26.4395 17.2383 23.6809 24.6797 18.6729C30.5093 14.751 35.3677 9.74048 38.3857 4.60938L39.5811 9.06934C39.7275 9.6189 40.439 10.094 41.0879 9.93896C41.2446 9.89844 41.3921 9.82715 41.521 9.72925C41.6499 9.6311 41.7583 9.5083 41.8389 9.36816C41.9199 9.22778 41.9722 9.07275 41.9927 8.91187C42.0127 8.75122 42.001 8.58813 41.9575 8.43213L39.9429 0.912109C39.8579 0.597168 39.6519 0.328613 39.3691 0.165527C39.0864 0.00244141 38.751 -0.041748 38.4355 0.0427246L30.916 2.05737C30.6006 2.14185 30.3315 2.34814 30.168 2.63086C30.0049 2.91357 29.9604 3.24976 30.0449 3.56519C30.1294 3.88062 30.3354 4.14966 30.6182 4.31299C30.9009 4.47632 31.2368 4.52075 31.5527 4.43628L36.3975 3.13599C33.5811 8.0293 28.9282 12.8486 23.3057 16.6311C16.2661 21.3691 8.42529 23.9785 1.23047 23.9785C0.904297 23.9785 0.591309 24.1082 0.360352 24.3389C0.129395 24.5698 0 24.8828 0 25.209C0 25.5354 0.129395 25.8484 0.360352 26.0791C0.591309 26.3098 0.904297 26.4395 1.23047 26.4395Z" fill="#FFFFFF" fill-opacity="1.000000" fill-rule="nonzero"/>
	<path id="Vector" d="M12.6836 4.22778C12.6836 6.56299 10.791 8.45581 8.45605 8.45581C6.12109 8.45581 4.22803 6.56299 4.22803 4.22778C4.22803 1.89282 6.12109 0 8.45605 0C10.791 0 12.6836 1.89282 12.6836 4.22778Z" fill="#FFFFFF" fill-opacity="1.000000" fill-rule="evenodd"/>
	<path id="Vector" d="M10.0283 14.9839L8.45605 10.2827L6.8833 14.9839L6.8833 14.9922L8.45605 16.5654L10.0283 14.9922L10.0283 14.9839Z" fill="#FFFFFF" fill-opacity="1.000000" fill-rule="nonzero"/>
	<path id="Vector" d="M10.1475 9.30151L9.91016 9.30151L11.7788 14.8994C11.8398 15.0544 11.855 15.2239 11.8218 15.3875C11.7886 15.5508 11.709 15.7012 11.5928 15.8206L8.81104 18.603L16.0659 18.603C16.29 18.6025 16.5049 18.5134 16.6636 18.3547C16.8218 18.1963 16.9111 17.9814 16.9116 17.7573L16.9116 16.0659C16.9097 14.2725 16.1963 12.5532 14.9282 11.2852C13.6602 10.0171 11.9404 9.30371 10.1475 9.30151Z" fill="#FFFFFF" fill-opacity="1.000000" fill-rule="nonzero"/>
	<path id="Vector" d="M5.31885 15.8206C5.20264 15.7012 5.12305 15.5508 5.08984 15.3875C5.05664 15.2239 5.07178 15.0544 5.13281 14.8994L7.00146 9.30151L6.76416 9.30151C4.97119 9.30396 3.25195 10.0173 1.98389 11.2854C0.71582 12.5535 0.00244141 14.2725 0 16.0659L0 17.7573C0.000488281 17.9814 0.0898438 18.196 0.248535 18.3545C0.406738 18.5132 0.621582 18.6023 0.845703 18.603L8.10889 18.603C8.10889 18.603 7.56885 18.0706 5.31885 15.8206Z" fill="#FFFFFF" fill-opacity="1.000000" fill-rule="nonzero"/>
</svg>
