<svg width="42.000000" height="42.000000" viewBox="0 0 42 42" fill="none" xmlns="http://www.w3.org/2000/svg" xmlns:xlink="http://www.w3.org/1999/xlink">
	<desc>
			Created with Pixso.
	</desc>
	<defs>
		<clipPath id="clip650_772">
			<rect id="diagram 1" width="42.000000" height="42.000000" fill="white" fill-opacity="0"/>
		</clipPath>
	</defs>
	<rect id="diagram 1" width="42.000000" height="42.000000" fill="#FFFFFF" fill-opacity="0"/>
	<g clip-path="url(#clip650_772)">
		<path id="Vector" d="M40.7695 39.5391L39.457 39.5391L39.457 15.2578C39.457 14.5769 38.9072 14.0273 38.2266 14.0273L33.3047 14.0273C32.624 14.0273 32.0742 14.5769 32.0742 15.2578L32.0742 39.5391L29.6133 39.5391L29.6133 23.4609C29.6133 22.78 29.0635 22.2305 28.3828 22.2305L23.4609 22.2305C22.7803 22.2305 22.2305 22.78 22.2305 23.4609L22.2305 39.5391L19.7695 39.5391L19.7695 27.9727C19.7695 27.2917 19.2197 26.7422 18.5391 26.7422L13.6172 26.7422C12.9365 26.7422 12.3867 27.2917 12.3867 27.9727L12.3867 39.5391L9.92578 39.5391L9.92578 30.9258C9.92578 30.2449 9.37598 29.6953 8.69531 29.6953L3.77344 29.6953C3.09277 29.6953 2.54297 30.2449 2.54297 30.9258L2.54297 39.5391L1.23047 39.5391C0.549805 39.5391 0 40.0886 0 40.7695C0 41.4504 0.549805 42 1.23047 42L40.7695 42C41.4502 42 42 41.4504 42 40.7695C42 40.0886 41.4502 39.5391 40.7695 39.5391Z" fill="#FFFFFF" fill-opacity="1.000000" fill-rule="nonzero"/>
		<path id="Vector" d="M1.23047 26.4385C8.90869 26.4385 17.2349 23.6824 24.6831 18.6702C30.5156 14.749 35.3721 9.73706 38.3906 4.61011L39.5884 9.07251C39.7358 9.62207 40.4497 10.0979 41.0977 9.94214C41.7622 9.78613 42.1396 9.08887 41.9673 8.43262L39.9492 0.9104C39.7769 0.25415 39.0962 -0.139648 38.4399 0.0410156L30.9175 2.05884C30.2612 2.2312 29.876 2.91211 30.0483 3.56836C30.2202 4.22461 30.9014 4.61816 31.5576 4.43774L36.4058 3.1416C33.5918 8.03076 28.9326 12.8542 23.3135 16.6357C16.2749 21.3772 8.43311 23.9858 1.23877 23.9858C0.558105 23.9858 0.00830078 24.5354 0.00830078 25.2163C0.00830078 25.8972 0.549805 26.4385 1.23047 26.4385Z" fill="#FFFFFF" fill-opacity="1.000000" fill-rule="nonzero"/>
		<path id="Vector" d="M11.6733 3.30591C11.6733 5.13159 10.1934 6.61182 8.36719 6.61182C6.5415 6.61182 5.06152 5.13159 5.06152 3.30591C5.06152 1.47998 6.5415 0 8.36719 0C10.1934 0 11.6733 1.47998 11.6733 3.30591Z" fill="#FFFFFF" fill-opacity="1.000000" fill-rule="evenodd"/>
		<path id="Vector" d="M10.8037 7.06299C10.1064 7.51416 9.26953 7.78491 8.37549 7.78491C7.48145 7.78491 6.64453 7.52246 5.94727 7.06299C5.17627 7.3584 4.45459 7.79297 3.83105 8.35913L8.37549 10.0654L12.9199 8.35913C12.2969 7.80127 11.5747 7.36646 10.8037 7.06299Z" fill="#FFFFFF" fill-opacity="1.000000" fill-rule="nonzero"/>
		<path id="Vector" d="M15.3809 12.0669L14.9956 12.0669C14.6758 12.0669 14.4131 12.3293 14.4131 12.6494L14.4131 14.208C14.4131 14.5278 14.6758 14.7903 14.9956 14.7903L15.3809 14.7903C16.1357 14.7903 16.7427 14.1833 16.7427 13.4287C16.7427 12.6738 16.1274 12.0669 15.3809 12.0669Z" fill="#FFFFFF" fill-opacity="1.000000" fill-rule="nonzero"/>
		<path id="Vector" d="M1.80469 9.12183C1.64893 9.22852 1.55029 9.40894 1.55029 9.60571L1.55029 10.9019L1.74707 10.9019C2.71533 10.9019 3.50244 11.6895 3.50244 12.6572L3.50244 14.2158C3.50244 15.1838 2.71533 15.9714 1.74707 15.9714L1.55859 15.9714L1.55859 17.2019C1.55859 17.448 1.70605 17.6611 1.93604 17.7515L7.78467 19.9336L7.78467 11.0906L2.34619 9.04785C2.16553 8.98242 1.96875 9.01514 1.80469 9.12183Z" fill="#FFFFFF" fill-opacity="1.000000" fill-rule="nonzero"/>
		<path id="Vector" d="M13.2402 14.2078L13.2402 12.6492C13.2402 11.6812 14.0273 10.8936 14.9956 10.8936L15.1924 10.8936L15.1924 9.59741C15.1924 9.40894 15.1021 9.22827 14.938 9.11353C14.7822 9.00684 14.5771 8.98218 14.3965 9.04785L8.95801 11.0906L8.95801 19.9333L14.8066 17.7432C15.0366 17.6611 15.1841 17.4397 15.1841 17.1936L15.1841 15.9631L14.9873 15.9631C14.0195 15.9631 13.2402 15.1755 13.2402 14.2078Z" fill="#FFFFFF" fill-opacity="1.000000" fill-rule="nonzero"/>
		<path id="Vector" d="M2.33789 14.208L2.33789 12.6494C2.33789 12.3293 2.07568 12.0669 1.75537 12.0669L1.37012 12.0669C0.615234 12.0669 0.00830078 12.6738 0.00830078 13.4287C0.00830078 14.1833 0.615234 14.7903 1.37012 14.7903L1.75537 14.7903C2.07568 14.7903 2.33789 14.5361 2.33789 14.208Z" fill="#FFFFFF" fill-opacity="1.000000" fill-rule="nonzero"/>
	</g>
</svg>
