<svg width="42.000000" height="42.000000" viewBox="0 0 42 42" fill="none" xmlns="http://www.w3.org/2000/svg" xmlns:xlink="http://www.w3.org/1999/xlink">
	<desc>
			Created with Pixso.
	</desc>
	<defs>
		<clipPath id="clip652_856">
			<rect id="Asset 6 1" width="42.000000" height="42.000000" fill="white" fill-opacity="0"/>
		</clipPath>
	</defs>
	<rect id="Asset 6 1" width="42.000000" height="42.000000" fill="#FFFFFF" fill-opacity="0"/>
	<g clip-path="url(#clip652_856)">
		<path id="Vector" d="M1.23047 26.4395C8.91016 26.4395 17.2383 23.6809 24.6797 18.6729C30.5093 14.751 35.3677 9.74048 38.3857 4.60938L39.5811 9.06934C39.7275 9.6189 40.439 10.094 41.0879 9.93896C41.2446 9.89844 41.3921 9.82715 41.521 9.72925C41.6499 9.6311 41.7583 9.5083 41.8389 9.36816C41.9199 9.22778 41.9722 9.07275 41.9927 8.91187C42.0127 8.75122 42.001 8.58813 41.9575 8.43213L39.9429 0.912109C39.8579 0.597168 39.6519 0.328613 39.3691 0.165527C39.0864 0.00244141 38.751 -0.041748 38.4355 0.0427246L30.916 2.05737C30.6006 2.14185 30.3315 2.34814 30.168 2.63086C30.0049 2.91357 29.9604 3.24976 30.0449 3.56519C30.1294 3.88062 30.3354 4.14966 30.6182 4.31299C30.9009 4.47632 31.2368 4.52075 31.5527 4.43628L36.3975 3.13599C33.5811 8.0293 28.9282 12.8486 23.3057 16.6311C16.2661 21.3691 8.42529 23.9785 1.23047 23.9785C0.904297 23.9785 0.591309 24.1082 0.360352 24.3389C0.129395 24.5698 0 24.8828 0 25.209C0 25.5354 0.129395 25.8484 0.360352 26.0791C0.591309 26.3098 0.904297 26.4395 1.23047 26.4395Z" fill="#FFFFFF" fill-opacity="1.000000" fill-rule="nonzero"/>
		<path id="Vector" d="M40.7695 39.5391L39.457 39.5391L39.457 15.2578C39.457 14.9314 39.3271 14.6184 39.0967 14.3877C38.8657 14.157 38.5527 14.0273 38.2266 14.0273L33.3047 14.0273C32.9785 14.0273 32.6655 14.157 32.4346 14.3877C32.2041 14.6184 32.0742 14.9314 32.0742 15.2578L32.0742 39.5391L29.6133 39.5391L29.6133 23.4609C29.6133 23.1345 29.4834 22.8215 29.2529 22.5908C29.022 22.3601 28.709 22.2305 28.3828 22.2305L23.4609 22.2305C23.1348 22.2305 22.8218 22.3601 22.5908 22.5908C22.3604 22.8215 22.2305 23.1345 22.2305 23.4609L22.2305 39.5391L19.7695 39.5391L19.7695 27.9727C19.7695 27.6462 19.6396 27.3333 19.4092 27.1025C19.1782 26.8718 18.8652 26.7422 18.5391 26.7422L13.6172 26.7422C13.291 26.7422 12.978 26.8718 12.7471 27.1025C12.5166 27.3333 12.3867 27.6462 12.3867 27.9727L12.3867 39.5391L9.92578 39.5391L9.92578 30.9258C9.92578 30.5994 9.79639 30.2864 9.56543 30.0557C9.33447 29.825 9.02148 29.6953 8.69531 29.6953L3.77344 29.6953C3.44727 29.6953 3.13428 29.825 2.90332 30.0557C2.67236 30.2864 2.54297 30.5994 2.54297 30.9258L2.54297 39.5391L1.23047 39.5391C0.904297 39.5391 0.591309 39.6687 0.360352 39.8994C0.129395 40.1301 0 40.4431 0 40.7695C0 41.0959 0.129395 41.4089 0.360352 41.6396C0.591309 41.8704 0.904297 42 1.23047 42L40.7695 42C41.0957 42 41.4087 41.8704 41.6396 41.6396C41.8701 41.4089 42 41.0959 42 40.7695C42 40.4431 41.8701 40.1301 41.6396 39.8994C41.4087 39.6687 41.0957 39.5391 40.7695 39.5391Z" fill="#FFFFFF" fill-opacity="1.000000" fill-rule="nonzero"/>
		<path id="Shape" d="M5.33936 8.10376C4.7334 8.41187 4.06006 8.56274 3.38086 8.54272C2.70215 8.56274 2.0293 8.41187 1.42383 8.10376L1.42383 16.0435C1.60107 16.0254 1.77881 16.0166 1.95703 16.0173C2.63623 15.9968 3.30957 16.1475 3.91504 16.4553L3.91504 13.8811C3.91504 13.312 4.47852 12.8435 5.33936 12.6123L5.33936 8.10376Z" fill="#FFFFFF" fill-opacity="1.000000" fill-rule="nonzero"/>
		<path id="Oval" d="M3.91455 17.4404C3.91455 17.8337 3.03809 18.1526 1.95703 18.1526C0.876465 18.1526 0 17.8337 0 17.4404C0 17.0474 0.876465 16.7285 1.95703 16.7285C3.03809 16.7285 3.91455 17.0474 3.91455 17.4404Z" fill="#FFFFFF" fill-opacity="1.000000" fill-rule="evenodd"/>
		<path id="Shape" d="M0 18.4268L0 19.2207C0 19.5054 0.780762 19.9336 1.95703 19.9336C3.13379 19.9336 3.91553 19.5063 3.91553 19.2217L3.91553 18.4275C3.31006 18.7361 2.63672 18.8872 1.95703 18.8672C1.27832 18.8867 0.60498 18.7354 0 18.4268Z" fill="#FFFFFF" fill-opacity="1.000000" fill-rule="nonzero"/>
		<path id="Shape" d="M10.5078 3.24927C10.7705 3.44702 11.0908 3.55493 11.4199 3.55688C11.1118 3.0271 10.8677 2.46265 10.6929 1.87524C10.6797 1.82983 10.6753 1.78247 10.6802 1.73535C10.6851 1.68823 10.6997 1.64282 10.7227 1.60132C10.7456 1.56006 10.7764 1.52368 10.8135 1.49438C10.8506 1.46484 10.8931 1.44336 10.9385 1.43066C10.9844 1.41797 11.0317 1.41431 11.0786 1.42041C11.1255 1.42627 11.1709 1.44141 11.2119 1.46509C11.2529 1.48853 11.2886 1.52026 11.3174 1.55786C11.3462 1.59546 11.3667 1.63843 11.3789 1.68408C11.5771 2.35278 11.8804 2.98584 12.2769 3.55933L12.6431 3.55933C13.04 2.98608 13.3433 2.35303 13.5405 1.68408C13.5654 1.59302 13.626 1.51587 13.7085 1.46924C13.7905 1.42285 13.8882 1.41089 13.979 1.43628C14.0703 1.46167 14.1475 1.52222 14.1938 1.60449C14.2402 1.68677 14.2524 1.78418 14.2271 1.87524C14.0522 2.46216 13.8081 3.02612 13.5 3.55518C13.8228 3.55054 14.1357 3.44336 14.3936 3.24927C15.2271 2.5979 15.519 1.56274 15.6147 0.808105C15.6245 0.744385 15.6152 0.679443 15.5884 0.621094C15.561 0.562744 15.5176 0.513672 15.4629 0.47998C15.4028 0.440918 15.333 0.420166 15.2612 0.420166C15.1895 0.420166 15.1196 0.440918 15.0596 0.47998C14.8101 0.63623 14.5205 0.716309 14.2261 0.710449C13.8135 0.713623 13.416 0.558105 13.1152 0.275635C13.0283 0.187744 12.9243 0.11792 12.8101 0.0703125C12.6958 0.0227051 12.5732 -0.00170898 12.4497 -0.00170898C12.3257 -0.00170898 12.2031 0.0227051 12.0894 0.0703125C11.9751 0.11792 11.8711 0.187744 11.7842 0.275635C11.4834 0.557861 11.0854 0.713623 10.6733 0.710449C10.3804 0.717285 10.0923 0.638428 9.84375 0.483154C9.78369 0.444336 9.71387 0.423828 9.64209 0.424072C9.56982 0.424072 9.49902 0.444824 9.43799 0.483887C9.3833 0.517822 9.33984 0.567139 9.31299 0.625488C9.28662 0.683838 9.27734 0.748535 9.28711 0.812012C9.38379 1.56689 9.6748 2.60132 10.5078 3.25244L10.5078 3.24927Z" fill="#FFFFFF" fill-opacity="1.000000" fill-rule="nonzero"/>
		<path id="Oval" d="M7.47461 2.13525C7.47461 2.52856 6.59814 2.84741 5.51709 2.84741C4.43652 2.84741 3.56006 2.52856 3.56006 2.13525C3.56006 1.74219 4.43652 1.42334 5.51709 1.42334C6.59814 1.42334 7.47461 1.74219 7.47461 2.13525Z" fill="#FFFFFF" fill-opacity="1.000000" fill-rule="evenodd"/>
		<path id="Oval" d="M5.33838 7.11865C5.33838 7.51196 4.46191 7.83081 3.38086 7.83081C2.30029 7.83081 1.42383 7.51196 1.42383 7.11865C1.42383 6.72559 2.30029 6.40674 3.38086 6.40674C4.46191 6.40674 5.33838 6.72559 5.33838 7.11865Z" fill="#FFFFFF" fill-opacity="1.000000" fill-rule="evenodd"/>
		<path id="Shape" d="M19.6538 11.4712C18.4956 6.55591 15.4028 4.54443 14.4619 4.03589C14.2886 4.11987 14.1055 4.18115 13.9165 4.21875L14.5776 4.83984C14.647 4.9043 14.6875 4.99341 14.6909 5.08789C14.6938 5.18213 14.6597 5.27393 14.5952 5.34302C14.5308 5.41211 14.4419 5.45288 14.3472 5.45605C14.2529 5.45947 14.1611 5.42505 14.0923 5.36084L12.9297 4.27148L12.8154 4.27148L12.8154 5.33789C12.8154 5.43213 12.7783 5.52271 12.7114 5.5896C12.6445 5.65625 12.5542 5.69385 12.4595 5.69385C12.3652 5.69385 12.2749 5.65625 12.208 5.5896C12.1411 5.52271 12.1035 5.43213 12.1035 5.33789L12.1035 4.27148L11.9897 4.27148L10.8281 5.35669C10.7583 5.41382 10.6694 5.44214 10.5796 5.43652C10.4897 5.43066 10.4053 5.39087 10.3433 5.32544C10.2817 5.25977 10.2471 5.17334 10.2466 5.08325C10.2461 4.99316 10.2798 4.90601 10.3408 4.83984L10.9971 4.22632C10.8066 4.18921 10.6221 4.12793 10.4473 4.04419C9.56201 4.54272 8.76416 5.18213 8.08496 5.9375C8.08154 5.93994 8.0791 5.94312 8.07666 5.94653C7.81689 6.23022 7.57227 6.52808 7.34424 6.83813C7.2876 6.91235 7.2041 6.96143 7.11182 6.97485C7.01953 6.98804 6.92578 6.96484 6.85059 6.90967C6.77539 6.85449 6.72461 6.77197 6.70947 6.67993C6.69434 6.58789 6.71631 6.49365 6.77002 6.41724C7.00293 6.09985 7.23828 5.81445 7.47314 5.55176L7.47314 3.11719C6.86768 3.4248 6.19434 3.57568 5.51562 3.55615C4.83643 3.57642 4.16309 3.42578 3.55762 3.11792L3.55762 5.69946C4.98975 5.74536 6.04883 6.34009 6.04883 7.11865L6.04883 12.4844C6.22656 12.4661 6.40479 12.4575 6.58301 12.458C8.10449 12.458 9.25293 13.0701 9.25293 13.8813L9.25293 17.8008L15.7271 17.8008C16.0996 17.8008 18.0117 17.7295 19.1133 16.3416C19.9746 15.252 20.1558 13.6155 19.6523 11.4753L19.6538 11.4712ZM14.2397 11.3892C14.2397 11.7666 14.0898 12.1287 13.8228 12.3955C13.5562 12.6626 13.1938 12.8125 12.8164 12.8125L12.8164 13.1685C12.8164 13.2629 12.7788 13.3535 12.7124 13.4202C12.6455 13.4871 12.5547 13.5244 12.4604 13.5244C12.3662 13.5244 12.2754 13.4871 12.2085 13.4202C12.1421 13.3535 12.1045 13.2629 12.1045 13.1685L12.1045 12.8132C11.9175 12.8135 11.7324 12.7766 11.5596 12.7051C11.3867 12.6338 11.23 12.5288 11.0977 12.3967C10.9653 12.2646 10.8604 12.1077 10.7886 11.9348C10.7173 11.7622 10.6802 11.5769 10.6802 11.3901C10.6802 11.2957 10.7178 11.2051 10.7847 11.1382C10.8516 11.0715 10.9419 11.0339 11.0366 11.0339C11.1309 11.0339 11.2212 11.0715 11.2881 11.1382C11.355 11.2051 11.3926 11.2957 11.3926 11.3901C11.3926 11.5789 11.4673 11.76 11.6011 11.8936C11.7344 12.0271 11.9155 12.1021 12.1045 12.1021L12.1045 10.678C11.9146 10.6826 11.7256 10.6492 11.5493 10.5796C11.3726 10.51 11.2114 10.406 11.0757 10.2734C10.9395 10.1406 10.8315 9.98218 10.7578 9.80713C10.6841 9.63232 10.646 9.44434 10.646 9.25439C10.646 9.06445 10.6841 8.87646 10.7578 8.70142C10.8315 8.52661 10.9395 8.36792 11.0757 8.23535C11.2114 8.10278 11.3726 7.99854 11.5493 7.9292C11.7256 7.85962 11.9146 7.82617 12.1045 7.83081L12.1045 7.47461C12.1045 7.38037 12.1421 7.28979 12.2085 7.2229C12.2754 7.15625 12.3662 7.11865 12.4604 7.11865C12.5547 7.11865 12.6455 7.15625 12.7124 7.2229C12.7788 7.28979 12.8164 7.38037 12.8164 7.47461L12.8164 7.83081C13.1938 7.83081 13.5562 7.98071 13.8228 8.24756C14.0898 8.5144 14.2397 8.87646 14.2397 9.25391C14.2397 9.34839 14.2021 9.43896 14.1353 9.50562C14.0688 9.57251 13.978 9.60986 13.8838 9.60986C13.7891 9.60986 13.6987 9.57251 13.6318 9.50562C13.5654 9.43896 13.5278 9.34839 13.5278 9.25391C13.5278 9.06543 13.4526 8.88452 13.3193 8.75098C13.186 8.61768 13.0049 8.54272 12.8164 8.54272L12.8164 9.96606C13.1938 9.96655 13.5552 10.1169 13.8218 10.384C14.0879 10.6511 14.2373 11.0129 14.2373 11.3901L14.2397 11.3892ZM18.5596 15.8928C17.6572 17.0264 16.0459 17.0837 15.731 17.0837C15.6831 17.0862 15.6348 17.0786 15.5898 17.0618C15.5444 17.0449 15.5034 17.0193 15.4683 16.9858C15.4336 16.9526 15.4058 16.9126 15.3867 16.8684C15.3677 16.8242 15.3579 16.7764 15.3579 16.7283C15.3579 16.6799 15.3677 16.6323 15.3867 16.5881C15.4058 16.5437 15.4336 16.5037 15.4683 16.4705C15.5034 16.4373 15.5444 16.4114 15.5898 16.3945C15.6348 16.3777 15.6831 16.3704 15.731 16.3726C15.9888 16.3726 17.3062 16.3274 18.001 15.4507C18.3291 14.9866 18.5044 14.4316 18.5015 13.8633C18.5073 13.7693 18.5493 13.6814 18.6191 13.6182C18.689 13.5549 18.7803 13.5212 18.8745 13.5244C18.9214 13.5269 18.9668 13.5383 19.0093 13.5583C19.0513 13.5784 19.0894 13.6064 19.1206 13.6411C19.1523 13.6758 19.1763 13.7163 19.1924 13.7603C19.208 13.8044 19.2148 13.8511 19.2124 13.8977C19.209 14.6152 18.979 15.3132 18.5562 15.8928L18.5596 15.8928Z" fill="#FFFFFF" fill-opacity="1.000000" fill-rule="nonzero"/>
		<path id="Shape" d="M11.3901 9.25391C11.3901 9.34741 11.4082 9.44019 11.4443 9.52661C11.48 9.61304 11.5322 9.69141 11.5986 9.75757C11.6646 9.82373 11.7432 9.87622 11.8296 9.91187C11.916 9.94775 12.0088 9.96606 12.1021 9.96606L12.1021 8.54272C12.0088 8.54272 11.916 8.56104 11.8296 8.59668C11.7432 8.63232 11.665 8.68457 11.5986 8.75073C11.5327 8.81689 11.48 8.89526 11.4443 8.98169C11.4087 9.06787 11.3901 9.1604 11.3901 9.25391Z" fill="#FFFFFF" fill-opacity="1.000000" fill-rule="nonzero"/>
		<path id="Shape" d="M12.814 12.1021C13.0029 12.1021 13.1841 12.0271 13.3174 11.8936C13.4512 11.76 13.5259 11.5789 13.5259 11.3899C13.5259 11.2012 13.4512 11.02 13.3174 10.8865C13.1841 10.7529 13.0029 10.678 12.814 10.678L12.814 12.1021Z" fill="#FFFFFF" fill-opacity="1.000000" fill-rule="nonzero"/>
		<path id="Shape" d="M4.62744 14.8674L4.62744 18.5088C4.62744 18.7935 5.40771 19.2209 6.58447 19.2209C7.76172 19.2209 8.54297 18.7935 8.54297 18.5088L8.54297 14.8674C7.93701 15.1753 7.26367 15.3259 6.58447 15.3054C5.90576 15.3257 5.23291 15.175 4.62744 14.8674Z" fill="#FFFFFF" fill-opacity="1.000000" fill-rule="nonzero"/>
		<path id="Oval" d="M8.54199 13.8811C8.54199 14.2744 7.66553 14.5933 6.58447 14.5933C5.50391 14.5933 4.62744 14.2744 4.62744 13.8811C4.62744 13.488 5.50391 13.1692 6.58447 13.1692C7.66553 13.1692 8.54199 13.488 8.54199 13.8811Z" fill="#FFFFFF" fill-opacity="1.000000" fill-rule="evenodd"/>
		<path id="Shape" d="M16.9805 2.49121C16.9805 3.07544 16.3472 3.552 15.5576 3.55762C15.4243 3.55786 15.292 3.5437 15.1621 3.51514C15.1431 3.53882 15.1201 3.55933 15.0947 3.57568C15.1514 3.61108 15.2153 3.65039 15.2832 3.6897C15.5 3.83179 15.7524 4.00635 16.0308 4.2229C16.0586 4.24438 16.084 4.26562 16.1128 4.29102C17.8828 4.42407 18.4448 5.16797 18.4629 5.18604C18.4956 5.23389 18.54 5.27271 18.5913 5.29932C18.6431 5.32593 18.7002 5.33936 18.7583 5.33862C18.8281 5.33984 18.8965 5.31885 18.9536 5.27881C19.0317 5.22656 19.0864 5.14551 19.105 5.05322C19.124 4.96094 19.1055 4.86523 19.0537 4.78662C19.0249 4.7439 18.5337 4.03931 17.0996 3.71509C17.2803 3.56567 17.4268 3.37866 17.5288 3.16748C17.6309 2.95605 17.6855 2.7251 17.6904 2.49048C17.666 2.10522 17.521 1.7373 17.2759 1.43896C17.0308 1.14087 16.6978 0.92749 16.3242 0.829346C16.3262 0.85376 16.3262 0.87793 16.3242 0.902344C16.2964 1.11914 16.2559 1.33423 16.2031 1.54639C16.4126 1.60767 16.5986 1.73047 16.7373 1.89917C16.876 2.06763 16.9609 2.27393 16.9805 2.49121Z" fill="#FFFFFF" fill-opacity="1.000000" fill-rule="nonzero"/>
	</g>
</svg>
