<svg width="42.000000" height="42.000000" viewBox="0 0 42 42" fill="none" xmlns="http://www.w3.org/2000/svg" xmlns:xlink="http://www.w3.org/1999/xlink">
	<desc>
			Created with Pixso.
	</desc>
	<defs>
		<clipPath id="clip652_823">
			<rect id="Asset 4 1" width="42.000000" height="42.000000" fill="white" fill-opacity="0"/>
		</clipPath>
	</defs>
	<rect id="Asset 4 1" width="42.000000" height="42.000000" fill="#FFFFFF" fill-opacity="0"/>
	<g clip-path="url(#clip652_823)">
		<path id="Vector" d="M40.7695 39.5391L39.457 39.5391L39.457 15.2578C39.457 14.9314 39.3271 14.6184 39.0967 14.3877C38.8657 14.157 38.5527 14.0273 38.2266 14.0273L33.3047 14.0273C32.9785 14.0273 32.6655 14.157 32.4346 14.3877C32.2041 14.6184 32.0742 14.9314 32.0742 15.2578L32.0742 39.5391L29.6133 39.5391L29.6133 23.4609C29.6133 23.1345 29.4834 22.8215 29.2529 22.5908C29.022 22.3601 28.709 22.2305 28.3828 22.2305L23.4609 22.2305C23.1348 22.2305 22.8218 22.3601 22.5908 22.5908C22.3604 22.8215 22.2305 23.1345 22.2305 23.4609L22.2305 39.5391L19.7695 39.5391L19.7695 27.9727C19.7695 27.6462 19.6396 27.3333 19.4092 27.1025C19.1782 26.8718 18.8652 26.7422 18.5391 26.7422L13.6172 26.7422C13.291 26.7422 12.978 26.8718 12.7471 27.1025C12.5166 27.3333 12.3867 27.6462 12.3867 27.9727L12.3867 39.5391L9.92578 39.5391L9.92578 30.9258C9.92578 30.5994 9.79639 30.2864 9.56543 30.0557C9.33447 29.825 9.02148 29.6953 8.69531 29.6953L3.77344 29.6953C3.44727 29.6953 3.13428 29.825 2.90332 30.0557C2.67236 30.2864 2.54297 30.5994 2.54297 30.9258L2.54297 39.5391L1.23047 39.5391C0.904297 39.5391 0.591309 39.6687 0.360352 39.8994C0.129395 40.1301 0 40.4431 0 40.7695C0 41.0959 0.129395 41.4089 0.360352 41.6396C0.591309 41.8704 0.904297 42 1.23047 42L40.7695 42C41.0957 42 41.4087 41.8704 41.6396 41.6396C41.8701 41.4089 42 41.0959 42 40.7695C42 40.4431 41.8701 40.1301 41.6396 39.8994C41.4087 39.6687 41.0957 39.5391 40.7695 39.5391Z" fill="#FFFFFF" fill-opacity="1.000000" fill-rule="nonzero"/>
		<path id="Vector" d="M1.23047 26.4395C8.91016 26.4395 17.2383 23.6809 24.6797 18.6729C30.5093 14.751 35.3677 9.74048 38.3857 4.60938L39.5811 9.06934C39.7275 9.6189 40.439 10.094 41.0879 9.93896C41.2446 9.89844 41.3921 9.82715 41.521 9.72925C41.6499 9.6311 41.7583 9.5083 41.8389 9.36816C41.9199 9.22778 41.9722 9.07275 41.9927 8.91187C42.0127 8.75122 42.001 8.58813 41.9575 8.43213L39.9429 0.912109C39.8579 0.597168 39.6519 0.328613 39.3691 0.165527C39.0864 0.00244141 38.751 -0.041748 38.4355 0.0427246L30.916 2.05737C30.6006 2.14185 30.3315 2.34814 30.168 2.63086C30.0049 2.91357 29.9604 3.24976 30.0449 3.56519C30.1294 3.88062 30.3354 4.14966 30.6182 4.31299C30.9009 4.47632 31.2368 4.52075 31.5527 4.43628L36.3975 3.13599C33.5811 8.0293 28.9282 12.8486 23.3057 16.6311C16.2661 21.3691 8.42529 23.9785 1.23047 23.9785C0.904297 23.9785 0.591309 24.1082 0.360352 24.3389C0.129395 24.5698 0 24.8828 0 25.209C0 25.5354 0.129395 25.8484 0.360352 26.0791C0.591309 26.3098 0.904297 26.4395 1.23047 26.4395Z" fill="#FFFFFF" fill-opacity="1.000000" fill-rule="nonzero"/>
		<path id="Vector" d="M16.9312 0L10.3916 0C9.48926 0 8.71973 0.806396 8.71973 1.70801L8.71973 7.15796C8.71973 8.0603 9.49023 8.79297 10.3916 8.79297L16.9312 8.79297C17.8335 8.79297 18.603 8.05957 18.603 7.15796L18.603 1.70801C18.603 0.806396 17.8325 0 16.9312 0ZM12.0264 6.07031C12.021 6.21118 11.9609 6.34448 11.8594 6.44238C11.7578 6.54004 11.6226 6.59473 11.4814 6.59473C11.3403 6.59473 11.2046 6.54004 11.103 6.44238C11.0015 6.34448 10.9419 6.21118 10.936 6.07031L10.936 4.97754C10.9419 4.83667 11.0015 4.70337 11.103 4.60571C11.2046 4.50781 11.3403 4.45337 11.4814 4.45337C11.6226 4.45337 11.7578 4.50781 11.8594 4.60571C11.9609 4.70337 12.021 4.83667 12.0264 4.97754L12.0264 6.07031ZM14.2061 6.07031C14.2061 6.21484 14.1484 6.35327 14.0464 6.45557C13.9443 6.55762 13.8057 6.61499 13.6611 6.61499C13.5166 6.61499 13.3784 6.55762 13.2764 6.45557C13.1738 6.35327 13.1167 6.21484 13.1167 6.07031L13.1167 3.88745C13.1167 3.74292 13.1738 3.60449 13.2764 3.5022C13.3784 3.40015 13.5166 3.34277 13.6611 3.34277C13.8057 3.34277 13.9443 3.40015 14.0464 3.5022C14.1484 3.60449 14.2061 3.74292 14.2061 3.88745L14.2061 6.07031ZM16.3862 6.07031C16.3809 6.21118 16.3213 6.34448 16.2192 6.44238C16.1177 6.54004 15.9824 6.59473 15.8413 6.59473C15.7002 6.59473 15.5649 6.54004 15.4629 6.44238C15.3613 6.34448 15.3018 6.21118 15.2964 6.07031L15.2964 2.7981C15.2935 2.72461 15.3052 2.65161 15.3315 2.58301C15.3574 2.5144 15.3975 2.45166 15.4482 2.39868C15.499 2.34595 15.5601 2.30371 15.6274 2.2749C15.6953 2.24634 15.7681 2.23145 15.8413 2.23145C15.9146 2.23145 15.9873 2.24634 16.0547 2.2749C16.1226 2.30371 16.1836 2.34595 16.2344 2.39868C16.2852 2.45166 16.3252 2.5144 16.3511 2.58301C16.3774 2.65161 16.3892 2.72461 16.3862 2.7981L16.3862 6.07031Z" fill="#FFFFFF" fill-opacity="1.000000" fill-rule="nonzero"/>
		<path id="Vector" d="M4.35986 3.34277C3.92871 3.34277 3.50732 3.4707 3.14844 3.71021C2.79004 3.94995 2.51074 4.29053 2.3457 4.68896C2.18066 5.0874 2.13721 5.52588 2.22168 5.94873C2.30566 6.37183 2.51367 6.76025 2.81836 7.06519C3.12354 7.37012 3.51221 7.57764 3.93506 7.66187C4.3584 7.74585 4.79688 7.70239 5.19482 7.53735C5.59326 7.37231 5.93408 7.09253 6.17334 6.73389C6.41309 6.37524 6.54053 5.95361 6.54053 5.52246C6.54004 4.94434 6.31006 4.39014 5.90137 3.98145C5.49268 3.57275 4.93799 3.34302 4.35986 3.34277Z" fill="#FFFFFF" fill-opacity="1.000000" fill-rule="nonzero"/>
		<path id="Vector" d="M6.27246 8.16382C5.71875 8.57251 5.04883 8.79297 4.36035 8.79297C3.67236 8.79297 3.00244 8.57251 2.44873 8.16382C1.81494 8.47217 1.26514 8.92969 0.84668 9.49731C0.428223 10.0647 0.153809 10.7253 0.046875 11.4221C0.0341797 11.5159 0.0458984 11.6113 0.0810547 11.6992C0.115723 11.7871 0.172852 11.8645 0.246094 11.9241C0.487793 11.3271 0.899902 10.8152 1.43164 10.4519C1.96338 10.0889 2.59033 9.89111 3.23438 9.88354C3.87793 9.87622 4.50928 10.0591 5.04932 10.4097C5.58936 10.7603 6.01367 11.2625 6.26904 11.8535C6.45264 11.436 6.72168 11.0615 7.05908 10.7542C7.396 10.4468 7.79346 10.2131 8.22607 10.0686C7.79297 9.24292 7.10889 8.57593 6.27246 8.16382Z" fill="#FFFFFF" fill-opacity="1.000000" fill-rule="nonzero"/>
		<path id="Vector" d="M3.26953 10.9724C2.83838 10.9724 2.41699 11.1003 2.05859 11.3398C1.69971 11.5793 1.42041 11.9199 1.25537 12.3184C1.09033 12.7168 1.04736 13.1553 1.13135 13.5781C1.21533 14.0012 1.42285 14.3896 1.72803 14.6946C2.03271 14.9995 2.42139 15.2073 2.84424 15.2913C3.26709 15.3755 3.70557 15.3323 4.104 15.1672C4.50244 15.0022 4.84326 14.7227 5.08252 14.3643C5.32227 14.0056 5.4502 13.584 5.4502 13.1528C5.44971 12.5747 5.21973 12.0203 4.81104 11.6116C4.40234 11.2026 3.84766 10.9729 3.26953 10.9724Z" fill="#FFFFFF" fill-opacity="1.000000" fill-rule="nonzero"/>
		<path id="Vector" d="M9.26953 10.9727C8.97949 10.967 8.69189 11.0193 8.42236 11.1262C8.15283 11.2332 7.90771 11.3928 7.70068 11.5959C7.49365 11.7988 7.3291 12.041 7.2168 12.3083C7.10449 12.5757 7.04688 12.8625 7.04688 13.1526C7.04688 13.4424 7.10449 13.7295 7.2168 13.9968C7.3291 14.2639 7.49365 14.5061 7.70068 14.7092C7.90771 14.9121 8.15283 15.0718 8.42236 15.179C8.69189 15.2859 8.97949 15.3381 9.26953 15.3325C10.4712 15.3325 11.4844 14.3555 11.4844 13.1531C11.4844 11.9504 10.4673 10.9727 9.26953 10.9727Z" fill="#FFFFFF" fill-opacity="1.000000" fill-rule="nonzero"/>
		<path id="Vector" d="M15.2964 10.9724C14.7256 10.9834 14.1816 11.218 13.7817 11.6257C13.3823 12.0332 13.1582 12.5815 13.1582 13.1523C13.1582 13.7234 13.3823 14.2715 13.7817 14.6792C14.1816 15.0867 14.7256 15.3213 15.2964 15.3323C16.499 15.3323 17.5112 14.3555 17.5112 13.1528C17.5112 11.9502 16.499 10.9724 15.2964 10.9724Z" fill="#FFFFFF" fill-opacity="1.000000" fill-rule="nonzero"/>
		<path id="Vector" d="M4.90527 17.5129C4.90674 16.876 5.05127 16.2476 5.32715 15.6738C4.68359 16.2117 3.85547 16.4771 3.01953 16.4133C2.18311 16.3496 1.40527 15.9617 0.850586 15.3325C0.305664 15.9282 0.00244141 16.7056 0 17.5129L0 18.0576C0 18.1292 0.0136719 18.2002 0.0410156 18.2664C0.0683594 18.3325 0.108887 18.3926 0.15918 18.4434C0.209961 18.4939 0.27002 18.5342 0.335938 18.5615C0.402344 18.5889 0.473145 18.603 0.544922 18.603L5.00391 18.603C4.93945 18.4285 4.90527 18.2439 4.90381 18.0576L4.90527 17.5129Z" fill="#FFFFFF" fill-opacity="1.000000" fill-rule="nonzero"/>
		<path id="Vector" d="M11.7207 15.3325C11.4102 15.6743 11.0317 15.9478 10.6099 16.1355C10.188 16.3232 9.73145 16.4209 9.26953 16.4226C8.81201 16.4216 8.36035 16.3237 7.94336 16.136C7.52637 15.948 7.15381 15.6743 6.84961 15.3325C6.30518 15.9282 6.00195 16.7056 5.99902 17.5129L5.99902 18.0576C5.99902 18.1292 6.01318 18.2002 6.04053 18.2666C6.06787 18.3328 6.10791 18.3928 6.15869 18.4436C6.20947 18.4941 6.26953 18.5344 6.33545 18.5618C6.40186 18.5891 6.47266 18.6033 6.54443 18.603L12.0308 18.603C12.1025 18.603 12.1733 18.5891 12.2393 18.5615C12.3057 18.5342 12.3657 18.4939 12.416 18.4434C12.4668 18.3926 12.5068 18.3325 12.5342 18.2664C12.5615 18.2002 12.5757 18.1292 12.5757 18.0576L12.5757 17.5129C12.5723 16.7051 12.2671 15.9275 11.7207 15.3325Z" fill="#FFFFFF" fill-opacity="1.000000" fill-rule="nonzero"/>
		<path id="Vector" d="M17.7524 15.3325C17.4414 15.675 17.0625 15.9487 16.6396 16.1365C16.2168 16.3242 15.7593 16.4216 15.2964 16.4226C14.5449 16.4194 13.8174 16.1545 13.2393 15.6738C13.5161 16.2476 13.6602 16.876 13.6616 17.5129L13.6616 18.0576C13.6597 18.2439 13.626 18.4282 13.5615 18.603L18.0576 18.603C18.1294 18.6033 18.2002 18.5891 18.2666 18.5618C18.333 18.5344 18.3931 18.4941 18.4438 18.4436C18.4946 18.3928 18.5347 18.3328 18.562 18.2666C18.5894 18.2002 18.6035 18.1292 18.6035 18.0576L18.6035 17.5129C18.6006 16.7056 18.2974 15.9282 17.7524 15.3325Z" fill="#FFFFFF" fill-opacity="1.000000" fill-rule="nonzero"/>
	</g>
</svg>
