<svg width="42.000000" height="42.000000" viewBox="0 0 42 42" fill="none" xmlns="http://www.w3.org/2000/svg" xmlns:xlink="http://www.w3.org/1999/xlink">
	<desc>
			Created with Pixso.
	</desc>
	<defs>
		<clipPath id="clip652_803">
			<rect id="student 1" width="42.000000" height="42.000000" fill="white" fill-opacity="0"/>
		</clipPath>
	</defs>
	<rect id="student 1" width="42.000000" height="42.000000" fill="#FFFFFF" fill-opacity="0"/>
	<g clip-path="url(#clip652_803)">
		<path id="Vector" d="M40.7695 39.5391L39.457 39.5391L39.457 15.2578C39.457 14.9314 39.3271 14.6184 39.0967 14.3877C38.8657 14.157 38.5527 14.0273 38.2266 14.0273L33.3047 14.0273C32.9785 14.0273 32.6655 14.157 32.4346 14.3877C32.2041 14.6184 32.0742 14.9314 32.0742 15.2578L32.0742 39.5391L29.6133 39.5391L29.6133 23.4609C29.6133 23.1345 29.4834 22.8215 29.2529 22.5908C29.022 22.3601 28.709 22.2305 28.3828 22.2305L23.4609 22.2305C23.1348 22.2305 22.8218 22.3601 22.5908 22.5908C22.3604 22.8215 22.2305 23.1345 22.2305 23.4609L22.2305 39.5391L19.7695 39.5391L19.7695 27.9727C19.7695 27.6462 19.6396 27.3333 19.4092 27.1025C19.1782 26.8718 18.8652 26.7422 18.5391 26.7422L13.6172 26.7422C13.291 26.7422 12.978 26.8718 12.7471 27.1025C12.5166 27.3333 12.3867 27.6462 12.3867 27.9727L12.3867 39.5391L9.92578 39.5391L9.92578 30.9258C9.92578 30.5994 9.79639 30.2864 9.56543 30.0557C9.33447 29.825 9.02148 29.6953 8.69531 29.6953L3.77344 29.6953C3.44727 29.6953 3.13428 29.825 2.90332 30.0557C2.67236 30.2864 2.54297 30.5994 2.54297 30.9258L2.54297 39.5391L1.23047 39.5391C0.904297 39.5391 0.591309 39.6687 0.360352 39.8994C0.129395 40.1301 0 40.4431 0 40.7695C0 41.0959 0.129395 41.4089 0.360352 41.6396C0.591309 41.8704 0.904297 42 1.23047 42L40.7695 42C41.0957 42 41.4087 41.8704 41.6396 41.6396C41.8701 41.4089 42 41.0959 42 40.7695C42 40.4431 41.8701 40.1301 41.6396 39.8994C41.4087 39.6687 41.0957 39.5391 40.7695 39.5391Z" fill="#FFFFFF" fill-opacity="1.000000" fill-rule="nonzero"/>
		<path id="Vector" d="M1.23047 26.4395C8.91016 26.4395 17.2383 23.6809 24.6797 18.6729C30.5093 14.751 35.3677 9.74048 38.3857 4.60938L39.5811 9.06934C39.7275 9.6189 40.439 10.094 41.0879 9.93896C41.2446 9.89844 41.3921 9.82715 41.521 9.72925C41.6499 9.6311 41.7583 9.5083 41.8389 9.36816C41.9199 9.22778 41.9722 9.07275 41.9927 8.91187C42.0127 8.75122 42.001 8.58813 41.9575 8.43213L39.9429 0.912109C39.8579 0.597168 39.6519 0.328613 39.3691 0.165527C39.0864 0.00244141 38.751 -0.041748 38.4355 0.0427246L30.916 2.05737C30.6006 2.14185 30.3315 2.34814 30.168 2.63086C30.0049 2.91357 29.9604 3.24976 30.0449 3.56519C30.1294 3.88062 30.3354 4.14966 30.6182 4.31299C30.9009 4.47632 31.2368 4.52075 31.5527 4.43628L36.3975 3.13599C33.5811 8.0293 28.9282 12.8486 23.3057 16.6311C16.2661 21.3691 8.42529 23.9785 1.23047 23.9785C0.904297 23.9785 0.591309 24.1082 0.360352 24.3389C0.129395 24.5698 0 24.8828 0 25.209C0 25.5354 0.129395 25.8484 0.360352 26.0791C0.591309 26.3098 0.904297 26.4395 1.23047 26.4395Z" fill="#FFFFFF" fill-opacity="1.000000" fill-rule="nonzero"/>
		<path id="Vector" d="M16.4062 8.8208L16.4062 3.13354C16.4053 3.052 16.3857 2.97168 16.3481 2.89893C16.3779 2.84497 16.3975 2.78613 16.4062 2.7251C16.4062 2.60669 16.3677 2.49146 16.2964 2.39673C16.2251 2.30225 16.125 2.2334 16.0112 2.20093L8.37988 0.0205078C8.28174 -0.0065918 8.17822 -0.0065918 8.08008 0.0205078L0.451172 2.20093C0.336914 2.23315 0.236816 2.30176 0.165039 2.39648C0.0932617 2.49097 0.0546875 2.60645 0.0546875 2.7251C0.0546875 2.84375 0.0932617 2.95923 0.165039 3.05371C0.236816 3.14844 0.336914 3.21704 0.451172 3.24927L3.32227 4.06958L3.32227 4.71509C3.31982 5.01489 3.40088 5.30957 3.55615 5.56592C3.71143 5.82227 3.93506 6.03052 4.20166 6.16724C6.64453 7.36816 9.81348 7.36816 12.2583 6.16724C12.5244 6.03027 12.7476 5.82178 12.9023 5.56543C13.0571 5.30908 13.1377 5.01465 13.1348 4.71509L13.1348 4.07056L15.3145 3.44531L15.3145 8.81836C14.9971 8.93042 14.7217 9.13794 14.5264 9.4126C14.3315 9.68726 14.2261 10.0156 14.2251 10.3523L14.2251 11.4426C14.2251 11.5142 14.2393 11.5852 14.2666 11.6514C14.2939 11.7175 14.334 11.7776 14.3843 11.8284C14.4351 11.8789 14.4951 11.9192 14.561 11.9465C14.6274 11.9739 14.6982 11.988 14.77 11.988L16.9502 11.988C17.022 11.988 17.0928 11.9739 17.1587 11.9465C17.2251 11.9192 17.2852 11.8789 17.3359 11.8284C17.3862 11.7776 17.4263 11.7175 17.4536 11.6514C17.481 11.5852 17.4951 11.5142 17.4951 11.4426L17.4951 10.3547C17.4941 10.0181 17.3887 9.68994 17.1938 9.41528C16.999 9.14062 16.7241 8.93286 16.4062 8.8208Z" fill="#FFFFFF" fill-opacity="1.000000" fill-rule="nonzero"/>
		<path id="Vector" d="M12.6831 7.21875C11.2769 7.90063 9.73389 8.25244 8.17139 8.24731C6.61084 8.25073 5.07031 7.89893 3.66602 7.21875C3.53809 7.14722 3.4165 7.06494 3.30273 6.97266C3.41943 8.93408 4.47412 10.5984 5.96631 11.4517C5.96631 11.4517 6.73096 11.8125 6.97021 11.8806C7.36084 11.9993 7.76611 12.0625 8.1748 12.0684C8.6792 12.0601 9.17822 11.9661 9.65137 11.7903C9.90283 11.7009 10.3843 11.4541 10.3843 11.4541C11.8765 10.6018 12.9331 8.93652 13.0498 6.97437C12.9351 7.06641 12.812 7.14819 12.6831 7.21875Z" fill="#FFFFFF" fill-opacity="1.000000" fill-rule="nonzero"/>
		<path id="Vector" d="M8.17529 13.1528C7.74561 13.1489 7.31787 13.0938 6.90137 12.9888L8.17529 14.9001L9.44189 12.9905C9.02783 13.0945 8.60254 13.1489 8.17529 13.1528Z" fill="#FFFFFF" fill-opacity="1.000000" fill-rule="nonzero"/>
		<path id="Vector" d="M11.312 12.175C11.3022 12.1816 11.2915 12.1865 11.2827 12.1931L10.8281 12.8789C10.8281 12.9043 8.73828 16.0298 8.72412 16.0503L8.72412 18.6013L15.8091 18.6013C15.8809 18.6013 15.9517 18.5872 16.0181 18.5598C16.084 18.5325 16.144 18.4922 16.1948 18.4417C16.2456 18.3909 16.2856 18.3308 16.313 18.2646C16.3403 18.1985 16.3545 18.1274 16.3545 18.0559C16.3506 15.0813 14.1597 12.6384 11.312 12.175ZM12.5352 16.4226L11.4453 16.4226C11.3042 16.4172 11.1709 16.3574 11.0732 16.2556C10.9756 16.1541 10.9209 16.0186 10.9209 15.8774C10.9209 15.7366 10.9756 15.6011 11.0732 15.4993C11.1709 15.3977 11.3042 15.3379 11.4453 15.3325L12.5352 15.3325C12.6763 15.3379 12.8096 15.3977 12.9072 15.4993C13.0049 15.6011 13.0596 15.7366 13.0596 15.8774C13.0596 16.0186 13.0049 16.1541 12.9072 16.2556C12.8096 16.3574 12.6763 16.4172 12.5352 16.4226Z" fill="#FFFFFF" fill-opacity="1.000000" fill-rule="nonzero"/>
		<path id="Vector" d="M5.05811 12.1865C5.04883 12.1809 5.03906 12.1768 5.03027 12.1702C2.18604 12.637 0 15.083 0 18.0576C0 18.1292 0.0136719 18.2 0.0410156 18.2664C0.0683594 18.3325 0.108887 18.3926 0.15918 18.4431C0.209961 18.4939 0.27002 18.5342 0.335938 18.5615C0.402344 18.5889 0.473145 18.603 0.544922 18.603L7.62891 18.603L7.62891 16.052C5.15967 12.3408 5.66406 13.0989 5.05811 12.1865Z" fill="#FFFFFF" fill-opacity="1.000000" fill-rule="nonzero"/>
	</g>
</svg>
