<svg width="52.500000" height="42.000000" viewBox="0 0 52.5 42" fill="none" xmlns="http://www.w3.org/2000/svg" xmlns:xlink="http://www.w3.org/1999/xlink">
	<desc>
			Created with Pixso.
	</desc>
	<defs>
		<clipPath id="clip649_535">
			<rect id="users-gear" width="52.500000" height="42.000000" fill="white" fill-opacity="0"/>
		</clipPath>
	</defs>
	<rect id="users-gear" width="52.500000" height="42.000000" fill="#FFFFFF" fill-opacity="0"/>
	<g clip-path="url(#clip649_535)">
		<path id="Vector" d="M42 13.125C45.624 13.125 48.5625 10.1865 48.5625 6.5625C48.5625 2.93848 45.626 0 42 0C38.376 0 35.4375 2.93848 35.4375 6.5625C35.4375 10.1865 38.374 13.125 42 13.125ZM10.5 13.125C14.124 13.125 17.0625 10.1865 17.0625 6.5625C17.0625 2.93848 14.126 0 10.5 0C6.87598 0 3.9375 2.93848 3.9375 6.5625C3.9375 10.1865 6.87598 13.125 10.5 13.125ZM26.2417 26.25C30.9512 26.25 34.6992 22.4307 34.6992 17.7188C34.6992 13.0068 30.8813 9.1875 26.2417 9.1875C21.5322 9.1875 17.7842 13.0068 17.7842 17.7188C17.7104 22.4272 21.5332 26.25 26.2417 26.25ZM30.1875 32.8125C30.1875 31.4434 30.4663 30.1497 30.8945 28.9275C30.7041 28.916 30.5322 28.875 30.3433 28.875L22.1567 28.875C15.7173 28.875 10.5 33.7722 10.5 39.8098C10.5 41.0239 11.542 42 12.8296 42L34.6582 42C31.9512 39.8345 30.1875 36.5449 30.1875 32.8125ZM15.0854 17.7188C15.0854 17.2717 15.166 16.8467 15.2178 16.4136C14.3228 15.9224 13.3384 15.75 12.2964 15.75L7.2251 15.75C3.23535 15.75 0 19.179 0 23.4036C0 24.2485 0.646973 24.9375 1.44531 24.9375L17.8105 24.9375C16.1357 22.9851 15.0854 20.4832 15.0854 17.7188ZM45.2729 15.75L40.2002 15.75C39.1504 15.75 38.1592 15.999 37.2588 16.426C37.3076 16.8574 37.3896 17.2759 37.3896 17.7188C37.3896 19.48 36.9282 21.1133 36.188 22.5864C37.915 21.6069 39.8755 21 42 21C45.4849 21 48.5845 22.5374 50.7446 24.9375L51.0527 24.9375C51.8521 24.9375 52.5 24.2485 52.5 23.4036C52.5 19.179 49.2681 15.75 45.2729 15.75ZM50.7036 30.0808C50.2915 28.7676 49.5889 27.5691 48.6733 26.5774C48.5361 26.4246 48.3066 26.3865 48.1235 26.4934L46.5513 27.4014C45.8872 26.8364 45.124 26.394 44.2993 26.1038L44.2993 24.2075C44.2993 24.0012 44.147 23.8181 43.9482 23.7798C42.5898 23.4744 41.2002 23.4822 39.9023 23.7798C39.7769 23.8875 39.6294 24.0762 39.6294 24.2075L39.6294 26.0317C38.8047 26.322 38.041 26.7644 37.3774 27.3296L35.7979 26.4214C35.6221 26.3145 35.3931 26.3528 35.248 26.5054C34.332 27.498 33.6299 28.6965 33.2256 30.009C33.1646 30.2151 33.248 30.4287 33.4238 30.5278L34.9966 31.4441C34.8438 32.2988 34.8438 33.1841 34.9966 34.0396L33.4238 34.9558C33.2407 35.0552 33.1646 35.269 33.2256 35.4751C33.6299 36.7883 34.332 37.9785 35.248 38.9785C35.3931 39.1313 35.6147 39.1694 35.7979 39.0625L37.3774 38.1545C38.0415 38.7195 38.8047 39.1619 39.6294 39.4521L39.6294 41.2766C39.6294 41.4829 39.7744 41.666 39.9727 41.7041C41.3394 42.0095 42.7207 42.0017 44.0186 41.7041C44.2173 41.666 44.3696 41.4829 44.3696 41.2766L44.3696 39.4521C45.1943 39.1624 45.958 38.7195 46.6216 38.1545L48.1943 39.0625C48.3696 39.1694 48.6064 39.1313 48.7437 38.9785C49.6602 37.9858 50.3623 36.7883 50.7739 35.4751C50.835 35.269 50.751 35.0552 50.5679 34.9558L48.9951 34.0396C49.1553 33.1848 49.1553 32.2988 48.9951 31.4441L50.5679 30.5278C50.7529 30.4993 50.835 30.2859 50.7036 30.0808ZM42 35.4375C40.5503 35.4375 39.375 34.262 39.375 32.8125C39.375 31.363 40.5503 30.1875 42 30.1875C43.4497 30.1875 44.625 31.363 44.625 32.8125C44.625 34.2644 43.4521 35.4375 42 35.4375Z" fill="#FFFFFF" fill-opacity="1.000000" fill-rule="nonzero"/>
	</g>
</svg>
